<svg xmlns="http://www.w3.org/2000/svg" width="20" height="14" viewBox="0 0 20 14">
    <g fill="none" fill-rule="evenodd">
        <path d="M-2-5h24v24H-2z"/>
        <path fill="#4A4A4A" fill-rule="nonzero" d="M.424 11.879c0 .937.76 1.697 1.697 1.697h16.121c.938 0 1.697-.76 1.697-1.697V4.667a.212.212 0 0 0-.212-.212H.637a.212.212 0 0 0-.213.212v7.212z"/>
        <path fill="#4A4A4A" d="M19.94 1.697C19.94.76 19.18 0 18.241 0H2.122C1.183 0 .423.76.423 1.697V2.97c0 .117.095.212.212.212h19.091a.212.212 0 0 0 .212-.212V1.697z"/>
        <g stroke="#FFF" stroke-linecap="round" stroke-linejoin="round" stroke-width=".5">
            <path d="M3.818 6.364h1v1h-1zM3.818 9.482h1v1h-1zM6.936 6.364h1v1h-1zM3.818 8.59H5.6v.446M6.49 9.036v1.337h1.337V9.036h-.445M5.6 9.927v.446M5.6 6.364V7.7h.445M6.936 8.145h.891"/>
        </g>
    </g>
</svg>
