<svg xmlns="http://www.w3.org/2000/svg" width="22" height="22" viewBox="0 0 22 22">
    <g fill="none" fill-rule="evenodd">
        <circle cx="11" cy="11" r="11" fill="#F3A1A1" opacity=".149"/>
        <path fill="#B13231" fill-rule="nonzero" d="M5.25 15a1 1 0 0 0 1 1h9.5a1 1 0 0 0 1-1v-4.25a.125.125 0 0 0-.125-.125H5.375a.125.125 0 0 0-.125.125V15z"/>
        <path fill="#B13231" d="M16.75 9a1 1 0 0 0-1-1h-9.5a1 1 0 0 0-1 1v.75c0 .069.056.125.125.125h11.25a.125.125 0 0 0 .125-.125V9z"/>
        <g stroke="#F3A1A1" stroke-linecap="round" stroke-linejoin="round" stroke-width=".3">
            <path d="M7.25 11.75h1v1h-1zM7.25 13.587h1v1h-1zM9.087 11.75h1v1h-1zM7.25 13.063H8.3v.262M8.825 13.325v.787h.787v-.787H9.35M8.3 13.85v.262M8.3 11.75v.787h.262M9.088 12.8h.525"/>
        </g>
    </g>
</svg>
