<svg xmlns="http://www.w3.org/2000/svg" width="31" height="18" viewBox="0 0 31 18">
    <g fill="none" fill-rule="nonzero">
        <path fill="#84DBFF" d="M12.1 7.32h4.632c.435 0 .669-.51.386-.84L12.207.76a.509.509 0 0 0-.386-.177h-2.06a.508.508 0 0 0-.47.7l2.338 5.72a.509.509 0 0 0 .47.317z"/>
        <path fill="#CAF4FF" d="M10.602 1.88a.203.203 0 0 1 .188-.28h2.138l-.721-.84a.509.509 0 0 0-.386-.177h-2.06a.508.508 0 0 0-.47.7l2.338 5.72a.509.509 0 0 0 .47.317h.727l-2.224-5.44z"/>
        <path fill="#63312D" d="M16.733 7.574H12.1a.76.76 0 0 1-.706-.474L9.056 1.38A.76.76 0 0 1 9.762.33h2.06a.76.76 0 0 1 .578.265l4.911 5.72c.196.23.24.541.115.815a.756.756 0 0 1-.693.444zM9.76.837A.252.252 0 0 0 9.55.95a.25.25 0 0 0-.024.237l2.338 5.72c.04.096.132.159.236.159h4.632a.25.25 0 0 0 .23-.149.25.25 0 0 0-.037-.271L12.014.926a.253.253 0 0 0-.193-.089h-2.06z"/>
        <path fill="#F9A287" d="M.614 4.42v6.964c0 .562.455 1.017 1.017 1.017h24.476a1 1 0 0 0 1-1v-.5a4.999 4.999 0 0 0-4.999-4.998H5.613L4.405 3.889a1 1 0 0 0-.857-.486H1.63c-.562 0-1.017.456-1.017 1.018z"/>
        <path fill="#63312D" d="M26.107 12.656H1.631c-.7 0-1.27-.57-1.27-1.272V4.421c0-.7.57-1.271 1.27-1.271h1.916c.438 0 .85.233 1.076.608l1.134 1.89h16.351a5.26 5.26 0 0 1 5.253 5.253v.5c0 .692-.562 1.255-1.254 1.255zM1.631 3.658a.764.764 0 0 0-.762.763v6.963c0 .42.342.763.762.763h24.476c.411 0 .746-.334.746-.745v-.5a4.75 4.75 0 0 0-4.745-4.744H5.613a.254.254 0 0 1-.218-.124L4.187 4.02a.75.75 0 0 0-.64-.362H1.632z"/>
        <path fill="#D1D1D1" d="M4.405 3.89l1.208 2.013h2.999L7.403 3.89a1 1 0 0 0-.857-.485H3.547c.352 0 .677.184.858.485z"/>
        <path fill="#63312D" d="M8.612 6.158H5.613a.254.254 0 0 1-.218-.124L4.187 4.02a.75.75 0 0 0-.64-.362.254.254 0 0 1 0-.508h3c.437 0 .85.233 1.075.608L8.83 5.772a.254.254 0 0 1-.218.386zm-2.855-.509h2.406L7.186 4.02a.75.75 0 0 0-.64-.362h-1.99c.023.032.046.066.067.1L5.757 5.65z"/>
        <path fill="#D1D1D1" d="M25.021 5.903h-2.913a4.999 4.999 0 0 1 4.999 4.999v.5a1 1 0 0 1-1 1h2.982c.562 0 1.017-.456 1.017-1.018v-.396a5.085 5.085 0 0 0-5.085-5.085z"/>
        <path fill="#63312D" d="M29.089 12.656h-2.982a.254.254 0 0 1 0-.509c.411 0 .746-.334.746-.745v-.5a4.75 4.75 0 0 0-4.745-4.744.254.254 0 0 1 0-.509h2.913a5.345 5.345 0 0 1 5.34 5.34v.395c0 .701-.571 1.272-1.272 1.272zm-1.974-.509h1.974c.42 0 .763-.342.763-.763v-.396a4.836 4.836 0 0 0-4.83-4.83h-.66a5.26 5.26 0 0 1 3 4.744v.5c0 .278-.093.537-.247.745z"/>
        <path fill="#F8F3F3" d="M26.794 9.174a4.996 4.996 0 0 0-4.686-3.27H5.613L4.405 3.888a1 1 0 0 0-.857-.485H1.63c-.562 0-1.017.455-1.017 1.017v4.753h26.18z"/>
        <path fill="#63312D" d="M26.794 9.428H.614a.254.254 0 0 1-.254-.254V4.421c0-.7.57-1.271 1.271-1.271h1.916c.438 0 .85.233 1.076.608l1.134 1.89h16.351a5.272 5.272 0 0 1 4.924 3.438.254.254 0 0 1-.239.343zM.869 8.92h25.544a4.762 4.762 0 0 0-4.305-2.762H5.613a.254.254 0 0 1-.218-.124L4.187 4.02a.75.75 0 0 0-.64-.362H1.632a.764.764 0 0 0-.762.763V8.92z"/>
        <path fill="#84DBFF" d="M12.1 10.784h4.632c.435 0 .669.51.386.84l-4.911 5.72a.509.509 0 0 1-.386.177h-2.06a.508.508 0 0 1-.47-.7l2.338-5.72a.509.509 0 0 1 .47-.317z"/>
        <path fill="#CAF4FF" d="M10.307 16.82l2.339-5.72a.509.509 0 0 1 .47-.316H12.1a.509.509 0 0 0-.471.316L9.29 16.82c-.136.335.11.701.471.701h1.017a.508.508 0 0 1-.47-.7z"/>
        <path fill="#63312D" d="M11.822 17.775h-2.06a.762.762 0 0 1-.706-1.051l2.338-5.72a.76.76 0 0 1 .706-.475h4.633c.301 0 .566.17.693.445a.754.754 0 0 1-.115.815l-4.91 5.72a.76.76 0 0 1-.58.266zm.278-6.737a.253.253 0 0 0-.236.158l-2.338 5.72a.25.25 0 0 0 .024.238.25.25 0 0 0 .211.113h2.06a.253.253 0 0 0 .193-.088l4.91-5.72a.25.25 0 0 0 .039-.272.25.25 0 0 0-.23-.149H12.1z"/>
        <path fill="#84DBFF" d="M25.481 7.215h-3.759v1.959H26.8a5 5 0 0 0-1.319-1.96z"/>
        <g fill="#63312D">
            <path d="M26.8 9.428h-5.078a.254.254 0 0 1-.254-.254v-1.96c0-.14.114-.253.254-.253h3.76c.063 0 .124.023.17.066a5.283 5.283 0 0 1 1.386 2.059.253.253 0 0 1-.238.343zm-4.824-.508h4.443a4.777 4.777 0 0 0-1.038-1.45h-3.405v1.45zM3.951 16.96h4.132v.508H3.95zM5.016 15.233h3.066v.509H5.016zM3.951.594h4.132v.508H3.95z"/>
        </g>
    </g>
</svg>
