<svg xmlns="http://www.w3.org/2000/svg" width="22" height="24" viewBox="0 0 22 24">
    <g fill="#FF7266" fill-rule="nonzero">
        <path d="M18.5 7.5h-15A.5.5 0 0 0 3 8v14a2 2 0 0 0 2 2h12a2 2 0 0 0 2-2V8a.5.5 0 0 0-.5-.5zm-9.25 13a.75.75 0 1 1-1.5 0v-9a.75.75 0 1 1 1.5 0v9zm5 0a.75.75 0 1 1-1.5 0v-9a.75.75 0 1 1 1.5 0v9zM21 4h-4.75a.25.25 0 0 1-.25-.25V2.5A2.5 2.5 0 0 0 13.5 0h-5A2.5 2.5 0 0 0 6 2.5v1.25a.25.25 0 0 1-.25.25H1a1 1 0 1 0 0 2h20a1 1 0 0 0 0-2zM8 3.75V2.5a.5.5 0 0 1 .5-.5h5a.5.5 0 0 1 .5.5v1.25a.25.25 0 0 1-.25.25h-5.5A.25.25 0 0 1 8 3.75z"/>
    </g>
</svg>
