<svg xmlns="http://www.w3.org/2000/svg" width="18" height="18" viewBox="0 0 18 18">
    <path fill="#B13231" fill-rule="nonzero" d="M16.125 2.25h-2.063a.187.187 0 0 1-.187-.188V.75a.75.75 0 1 0-1.5 0v3.563a.562.562 0 1 1-1.125 0V2.625a.375.375 0 0 0-.375-.375H6.187A.187.187 0 0 1 6 2.063V.75a.75.75 0 0 0-1.5 0v3.563a.563.563 0 1 1-1.125 0V2.625A.375.375 0 0 0 3 2.25H1.875a1.5 1.5 0 0 0-1.5 1.5V16.5a1.5 1.5 0 0 0 1.5 1.5h14.25a1.5 1.5 0 0 0 1.5-1.5V3.75a1.5 1.5 0 0 0-1.5-1.5zM15.75 16.5H2.25a.375.375 0 0 1-.375-.375v-9c0-.207.168-.375.375-.375h13.5c.207 0 .375.168.375.375v9a.375.375 0 0 1-.375.375z"/>
</svg>
