<svg xmlns="http://www.w3.org/2000/svg" width="14" height="14" viewBox="0 0 14 14">
    <g fill="#FFF" fill-rule="evenodd">
        <circle cx="7" cy="7" r="7" opacity=".145"/>
        <g transform="translate(3.818 3.818)">
            <path d="M6.92.983a.356.356 0 0 0-.26-.108H3.606a.357.357 0 0 0-.255.104.285.285 0 0 0-.081.242l.339 2.29c.014.11.092.205.206.248a.37.37 0 0 0 .34-.04.291.291 0 0 0 .127-.288l-.276-1.859a.072.072 0 0 1 .02-.06.09.09 0 0 1 .065-.026h2.07c.025 0 .048.01.064.027s.023.039.02.06L5.87 3.582a.282.282 0 0 0 .059.228.346.346 0 0 0 .277.128c.166 0 .307-.108.334-.255l.454-2.451A.284.284 0 0 0 6.92.983z"/>
            <path d="M5.867 4.16h-2.01a.086.086 0 0 1-.075-.04l-.307-.54a.168.168 0 0 0-.131-.079.178.178 0 0 0-.15.052l-.627.666-.003.003a.311.311 0 0 1-.197.08h-.334c-.092 0-.166.064-.166.142v1.7c0 .045.024.087.066.114.767.489 1.361.737 1.767.737h1.849c.299.038.58-.13.643-.38.165-.67.28-1.347.341-2.03 0-.21-.229-.424-.666-.424zM1.167 3.939H.087c-.048 0-.087.03-.087.069v2.484c0 .039.04.07.087.07h1.08c.059.005.118-.01.163-.041a.153.153 0 0 0 .07-.124V4.103a.153.153 0 0 0-.07-.124.249.249 0 0 0-.163-.04z"/>
            <ellipse cx="5.133" cy="2.625" rx="1" ry="1"/>
            <path d="M2.678 3.062a.335.335 0 0 0 .264-.117c.05-.06.07-.134.057-.207L2.59.638A.063.063 0 0 1 2.608.58.087.087 0 0 1 2.67.557h2.605c.18 0 .325-.125.325-.279C5.6.125 5.455 0 5.275 0H2.191a.349.349 0 0 0-.247.099.251.251 0 0 0-.073.225l.487 2.506c.026.134.162.232.32.232z"/>
        </g>
    </g>
</svg>
