<svg xmlns="http://www.w3.org/2000/svg" width="22" height="22" viewBox="0 0 22 22">
    <g fill="none" fill-rule="evenodd">
        <circle cx="11" cy="11" r="11" fill="#FF0100" opacity=".145"/>
        <g fill="#FE4241" transform="translate(6 6)">
            <path d="M10.873 1.545a.56.56 0 0 0-.407-.17h-4.8a.56.56 0 0 0-.4.164.448.448 0 0 0-.128.38l.533 3.599a.489.489 0 0 0 .323.39.582.582 0 0 0 .536-.065.457.457 0 0 0 .198-.452l-.432-2.92a.113.113 0 0 1 .032-.096.14.14 0 0 1 .1-.04h3.253a.14.14 0 0 1 .102.042.113.113 0 0 1 .03.096l-.587 3.154a.443.443 0 0 0 .092.36.544.544 0 0 0 .436.2c.26 0 .483-.17.525-.4l.714-3.853a.447.447 0 0 0-.12-.39z"/>
            <path d="M9.219 6.538H6.06a.135.135 0 0 1-.117-.062l-.483-.85a.264.264 0 0 0-.206-.124.28.28 0 0 0-.234.081L4.033 6.63l-.003.005a.49.49 0 0 1-.311.126h-.524c-.144 0-.262.1-.262.223v2.672c0 .07.04.136.105.178 1.205.768 2.139 1.158 2.776 1.158H8.72c.47.06.913-.203 1.01-.598.26-1.052.44-2.116.538-3.188 0-.332-.36-.668-1.048-.668zM1.833 6.19H.137c-.075 0-.137.048-.137.108v3.904c0 .06.062.109.138.109h1.695a.39.39 0 0 0 .256-.064.24.24 0 0 0 .111-.194V6.447a.24.24 0 0 0-.11-.194.39.39 0 0 0-.257-.064z"/>
            <ellipse cx="8.067" cy="4.125" rx="1" ry="1"/>
            <path d="M4.209 4.812a.527.527 0 0 0 .415-.183.39.39 0 0 0 .088-.326l-.642-3.3A.099.099 0 0 1 4.1.912a.137.137 0 0 1 .097-.038H8.29c.282 0 .51-.196.51-.438C8.8.196 8.572 0 8.29 0H3.443a.548.548 0 0 0-.389.155.395.395 0 0 0-.114.355l.766 3.937c.04.211.253.365.503.365z"/>
        </g>
    </g>
</svg>
