<svg xmlns="http://www.w3.org/2000/svg" width="101" height="101" viewBox="0 0 101 101">
    <g fill="none" fill-rule="evenodd">
        <circle cx="50.5" cy="50.5" r="50.5" fill="#32BA7C"/>
        <path fill="#0AA06E" d="M38 73.025L63.802 99C85.17 93.263 101 73.663 101 50.238v-1.434L80.739 30 38 73.025z"/>
        <g fill="#FFF">
            <path d="M51.792 61.507c2.227 2.206 2.227 5.986 0 8.192l-4.612 4.568c-2.227 2.206-6.044 2.206-8.27 0l-20.2-20.164c-2.227-2.205-2.227-5.986 0-8.191l4.612-4.568c2.227-2.206 6.044-2.206 8.27 0l20.2 20.163z"/>
            <path d="M69.447 26.693c2.227-2.205 6.044-2.205 8.27 0l4.613 4.569c2.227 2.205 2.227 5.986 0 8.191l-34.991 34.5c-2.227 2.205-6.044 2.205-8.27 0l-4.613-4.57c-2.227-2.205-2.227-5.985 0-8.19l34.99-34.5z"/>
        </g>
    </g>
</svg>
