<svg xmlns="http://www.w3.org/2000/svg" width="16" height="16" viewBox="0 0 16 16">
    <g fill="none" fill-rule="evenodd">
        <g fill="#b13231">
            <path d="M.529.524a.667.667 0 0 0-.196.471V8.34c0 .368.299.666.667.666h5.333A.667.667 0 0 0 7 8.34V1.005A.667.667 0 0 0 6.333.34L1 .329a.667.667 0 0 0-.471.195zM15 .329L9.667.338A.667.667 0 0 0 9 1.005v3.333c0 .368.298.667.667.667H15a.667.667 0 0 0 .667-.667V.995A.667.667 0 0 0 15 .33zM6.805 15.476A.667.667 0 0 0 7 15.005V11.67a.667.667 0 0 0-.667-.666H1a.667.667 0 0 0-.667.666v3.324c0 .368.299.666.667.666l5.333.01c.177 0 .347-.07.472-.195zM15 7.005H9.667A.667.667 0 0 0 9 7.672v7.333c0 .369.298.667.667.667l5.333-.01a.667.667 0 0 0 .667-.666V7.672A.667.667 0 0 0 15 7.005z"/>
        </g>
        <path d="M-4-4h24v24H-4z"/>
    </g>
</svg>
