<svg xmlns="http://www.w3.org/2000/svg" width="25" height="31" viewBox="0 0 25 31">
    <g fill="none" fill-rule="nonzero">
        <path fill="#D1D1D1" d="M4.462.262h17.603V28H4.462z"/>
        <path fill="#63312D" d="M22.065 28.263H4.462a.262.262 0 0 1-.262-.262V.262C4.2.117 4.317 0 4.462 0h17.603c.145 0 .262.117.262.262v27.74a.262.262 0 0 1-.262.261zm-17.34-.524h17.078V.524H4.724v27.215z"/>
        <path fill="#F8F3F3" d="M2.366.262H19.97V28H2.366z"/>
        <path fill="#63312D" d="M19.97 28.263H2.365a.262.262 0 0 1-.262-.262V.262c0-.145.117-.262.262-.262H19.97c.145 0 .262.117.262.262v27.74a.262.262 0 0 1-.262.261zm-17.342-.524h17.08V.524H2.627v27.215z"/>
        <path fill="#82D9FF" d="M3.938 26.43h14.459V1.833H3.938z"/>
        <path fill="#CAF4FF" d="M4.986 2.882h13.411V1.834H3.938v24.595h1.048z"/>
        <path fill="#63312D" d="M18.397 26.69H3.938a.262.262 0 0 1-.262-.261V1.834c0-.145.117-.262.262-.262h14.459c.145 0 .262.117.262.262v24.595a.262.262 0 0 1-.262.262zM4.2 26.168h13.935V2.096H4.2v24.07z"/>
        <path fill="#EFC36A" d="M7.919 19.88h8.91v8.07H7.92z"/>
        <path fill="#63312D" d="M16.83 28.212H7.919a.262.262 0 0 1-.262-.262v-8.071c0-.145.117-.262.262-.262h8.91c.145 0 .263.117.263.262v8.07a.262.262 0 0 1-.262.263zm-8.649-.524h8.387V20.14H8.18v7.547z"/>
        <path fill="#F9DD9D" d="M5.505 19.88h8.91v8.07h-8.91z"/>
        <path fill="#FFEECF" d="M6.553 20.927h7.863V19.88h-8.91v8.07h1.047z"/>
        <path fill="#63312D" d="M14.416 28.212h-8.91a.262.262 0 0 1-.263-.262v-8.071c0-.145.118-.262.262-.262h8.91c.146 0 .263.117.263.262v8.07a.262.262 0 0 1-.262.263zm-8.649-.524h8.387V20.14H5.767v7.547z"/>
        <path fill="#F8F3F3" d="M8.968 19.88h1.986v2.69H8.968z"/>
        <path fill="#63312D" d="M10.954 22.83H8.968a.262.262 0 0 1-.262-.261v-2.69c0-.145.117-.262.262-.262h1.986c.145 0 .262.117.262.262v2.69a.262.262 0 0 1-.262.262zm-1.724-.523h1.462V20.14H9.23v2.166z"/>
        <path fill="#52B8D9" d="M6.233 4.115h2.685v2.554H6.233zM10.032 4.115h2.686v2.554h-2.686zM13.831 4.115h2.686v2.554H13.83zM6.233 7.76h2.685v2.555H6.233zM10.032 7.76h2.686v2.555h-2.686zM13.831 7.76h2.686v2.555H13.83z"/>
        <g fill="#63312D">
            <path d="M8.918 6.93H6.233a.262.262 0 0 1-.262-.261V4.114c0-.144.117-.262.262-.262h2.685c.145 0 .262.118.262.262V6.67a.262.262 0 0 1-.262.262zm-2.423-.523h2.161v-2.03H6.495v2.03zM12.718 6.93h-2.686a.262.262 0 0 1-.262-.261V4.114c0-.144.117-.262.262-.262h2.686c.144 0 .262.118.262.262V6.67a.262.262 0 0 1-.262.262zm-2.424-.523h2.162v-2.03h-2.162v2.03zM16.517 6.93H13.83a.262.262 0 0 1-.262-.261V4.114c0-.144.118-.262.262-.262h2.686c.144 0 .262.118.262.262V6.67a.262.262 0 0 1-.262.262zm-2.424-.523h2.162v-2.03h-2.162v2.03zM8.918 10.577H6.233a.262.262 0 0 1-.262-.262V7.76c0-.144.117-.262.262-.262h2.685c.145 0 .262.118.262.262v2.555a.262.262 0 0 1-.262.262zm-2.423-.524h2.161v-2.03H6.495v2.03zM12.718 10.577h-2.686a.262.262 0 0 1-.262-.262V7.76c0-.144.117-.262.262-.262h2.686c.144 0 .262.118.262.262v2.555a.262.262 0 0 1-.262.262zm-2.424-.524h2.162v-2.03h-2.162v2.03zM16.517 10.577H13.83a.262.262 0 0 1-.262-.262V7.76c0-.144.118-.262.262-.262h2.686c.144 0 .262.118.262.262v2.555a.262.262 0 0 1-.262.262zm-2.424-.524h2.162v-2.03h-2.162v2.03z"/>
        </g>
        <path fill="#52B8D9" d="M2.378 28.002H24.15v2.432H2.38z"/>
        <path fill="#63312D" d="M24.15 30.696H2.377a.262.262 0 0 1-.262-.262V28c0-.145.118-.262.262-.262H24.15c.144 0 .262.117.262.262v2.433a.263.263 0 0 1-.263.262zm-21.51-.524h21.248v-1.909H2.64v1.909z"/>
        <path fill="#82D9FF" d="M.282 28.002h21.771v2.432H.282z"/>
        <path fill="#CAF4FF" d="M1.33 29.05h20.723v-1.048H.282v2.432H1.33z"/>
        <path fill="#63312D" d="M22.053 30.696H.282a.262.262 0 0 1-.262-.262V28c0-.145.117-.262.262-.262h21.772c.144 0 .262.117.262.262v2.433a.263.263 0 0 1-.263.262zM.544 30.172h21.248v-1.909H.544v1.909z"/>
        <path fill="#F8F3F3" d="M16.517 14.753a.93.93 0 1 1-1.862 0 .93.93 0 0 1 1.862 0z"/>
        <path fill="#63312D" d="M15.587 15.946a1.194 1.194 0 1 1 1.192-1.193c0 .658-.535 1.193-1.192 1.193zm0-1.861a.67.67 0 1 0 0 1.338.67.67 0 0 0 0-1.338z"/>
    </g>
</svg>
