<svg xmlns="http://www.w3.org/2000/svg" width="18" height="12" viewBox="0 0 18 12">
    <g fill="none" fill-rule="evenodd">
        <path d="M-3-6h24v24H-3z"/>
        <path fill="#b13231" fill-rule="nonzero" d="M17.625 4.125A.375.375 0 0 0 18 3.75V1.125C18 .504 17.496 0 16.875 0H1.125C.504 0 0 .504 0 1.125V3.75c0 .207.168.375.375.375a1.875 1.875 0 0 1 0 3.75A.375.375 0 0 0 0 8.25v2.625C0 11.496.504 12 1.125 12h15.75c.621 0 1.125-.504 1.125-1.125V8.25a.375.375 0 0 0-.375-.375 1.875 1.875 0 0 1 0-3.75zM5.602 8.602l6-6a.562.562 0 0 1 .796.796l-6 6a.563.563 0 0 1-.796-.796zM5.25 3.75a1.5 1.5 0 1 1 3 0 1.5 1.5 0 0 1-3 0zm6 3a1.5 1.5 0 1 1 0 3 1.5 1.5 0 0 1 0-3z"/>
    </g>
</svg>
