<svg xmlns="http://www.w3.org/2000/svg" width="40" height="40" viewBox="0 0 40 40">
    <g fill="none" fill-rule="evenodd">
        <rect width="39.167" height="39.167" x=".417" y=".417" fill="#F9A287" stroke="#63312D" stroke-width=".833" rx="4"/>
        <g fill-rule="nonzero">
            <path fill="#F9DD9D" d="M14.37 12.304h15.197V27.98H14.37z"/>
            <path fill="#63312D" d="M29.567 28.284H14.37a.305.305 0 0 1-.305-.304V12.304c0-.168.137-.304.305-.304h15.196c.168 0 .304.136.304.304V27.98a.305.305 0 0 1-.304.304zm-14.892-.608h14.587V12.609H14.675v15.067z"/>
            <path fill="#F9DD9D" d="M11.304 12.304h15.197V27.98H11.304z"/>
            <path fill="#FFEECF" d="M12.522 13.522h13.979v-1.218H11.304V27.98h1.218z"/>
            <path fill="#63312D" d="M26.5 28.284H11.305A.305.305 0 0 1 11 27.98V12.304c0-.168.136-.304.304-.304h15.197c.168 0 .304.136.304.304V27.98a.304.304 0 0 1-.304.304zm-14.891-.608h14.587V12.609H11.61v15.067z"/>
            <path fill="#F8F3F3" d="M20.88 17.328l-.66.51-.661-.51-.66.51-.657-.51-.659.51-.657-.51v-5.024h3.953z"/>
            <path fill="#63312D" d="M18.9 18.142a.306.306 0 0 1-.186-.064l-.471-.365-.473.365a.303.303 0 0 1-.372 0l-.658-.508a.303.303 0 0 1-.118-.242v-5.023c0-.168.136-.304.305-.304h3.954c.168 0 .304.136.304.304v5.023a.305.305 0 0 1-.118.242l-.66.508a.304.304 0 0 1-.372 0l-.474-.365-.473.365a.31.31 0 0 1-.188.064zm.66-1.119c.065 0 .131.022.186.064l.474.366.356-.275v-4.57H17.23v4.57l.354.274.473-.365a.301.301 0 0 1 .371 0l.472.365.473-.365a.31.31 0 0 1 .187-.064z"/>
        </g>
    </g>
</svg>
