<svg xmlns="http://www.w3.org/2000/svg" width="23" height="23" viewBox="0 0 23 23">
    <g fill="none" fill-rule="nonzero">
        <circle cx="11.5" cy="11.5" r="11.5" fill="#191C3A"/>
        <g fill="#FFF">
            <path d="M11.762 12.883c.23.226.23.678 0 .905l-.536.527c-.23.227-.69.227-.92 0l-2.3-2.262c-.23-.226-.23-.679 0-.905l.536-.528c.23-.226.69-.226.92 0l2.3 2.263z"/>
            <path d="M13.756 8.961c.23-.226.69-.226.92 0l.536.528c.23.226.23.679 0 .905l-3.986 3.921c-.23.227-.69.227-.92 0l-.537-.527c-.23-.227-.23-.68 0-.905l3.987-3.922z"/>
        </g>
    </g>
</svg>
