<svg xmlns="http://www.w3.org/2000/svg" width="376" height="300" viewBox="0 0 376 300">
    <defs>
        <linearGradient id="a" x1="7.217%" x2="54.501%" y1="44.987%" y2="47.915%">
            <stop offset="0%" stop-color="#F5F5F5"/>
            <stop offset="100%" stop-color="#E8E8E8"/>
        </linearGradient>
    </defs>
    <g fill="none" fill-rule="evenodd">
        <path fill="url(#a)" d="M145.225 274.303L0 190.46l99.939-57.72 145.234 83.848-99.948 57.715"/>
        <path fill="#FFDDA8" d="M229.21 228.018l66.714-38.513-.013-132.287-46.47 26.823-20.248 11.682-50.37 29.086.03 132.24v.047l50.358-29.078"/>
        <path fill="#AA6838" d="M294.39 188.616l-.02-128.706-113.565 66.048-.402 128.46 113.988-65.802"/>
        <path fill="#DDA866" d="M294.39 188.616l-100.543-58.044-13.167 8.398-.277 115.448 113.988-65.802"/>
        <path fill="#F9C98A" d="M178.844 124.818L80.188 67.854l50.06-29.13 20.265-11.806L196.798 0l99.113 57.218-46.47 26.823-20.321 11.76-50.276 29.017"/>
        <path fill="#BC7C46" d="M178.83 124.818L80.197 67.872l-.354 132.006 99.002 57.17-.013-132.23"/>
        <path fill="#FFDDA8" d="M296.158 187.488l65.992-11.928 1.426-129.31-2.225-1.292-65.44 12.26-1.378 1.927-.056 127.414 1.68.929"/>
        <path fill="#DDA866" d="M363.532 46.224l-68.999 12.921-.12 129.5 1.693.92 66.718-11.745.708-131.596"/>
        <path fill="#BC7C46" d="M375.05 214.743l-82.115-24.05-113.258 64.096-.833 1.944 82.153 26.14 114.048-65.478.004-2.652"/>
        <path fill="#EDC893" d="M179.677 254.79l81.368 25.638 114.004-65.685-80.658-26.127-114.714 66.173"/>
        <path fill="#4F2E16" d="M95.031 94.137l-.004-.942 12.152 7.016-.008.942-12.14-7.016"/>
        <path fill="#4F2E16" d="M104.505 102.933l-.557-.994 2.912-1.447-2.912-4.795.557-.368 3.543 5.858-3.543 1.746M95.031 103.442l-.008-.941 12.152 7.007v.933l-12.144-6.999"/>
        <path fill="#4F2E16" d="M104.505 112.25l-.557-1.01 2.907-1.426-2.907-4.808.557-.376 3.538 5.867-3.538 1.754M94.617 106.777l.004-17.383.402-.225.406.683-.005 17.392-.397.22-.41-.687"/>
        <path fill="#4F2E16" d="M111.02 99.023c0-1.287-.903-2.864-2.018-3.508L94.22 86.98c-1.114-.64-2.022-.108-2.022 1.18l.01 17.068c0 1.283.898 2.855 2.012 3.486l14.779 8.55c1.114.638 2.026.111 2.03-1.167l-.008-17.073zm-19.626 5.746l-.004-17.082c.004-1.805 1.27-2.527 2.83-1.637l14.782 8.528c1.568.916 2.838 3.106 2.83 4.907l.008 17.077c-.004 1.793-1.27 2.514-2.833 1.625l-14.788-8.545c-1.555-.899-2.825-3.085-2.825-4.873zM111.076 126.347c.013-1.296-.907-2.855-2.018-3.495l-14.796-8.536c-1.097-.644-2-.138-2.008 1.166v17.077c.008 1.27.902 2.834 2.017 3.486l14.792 8.545c1.106.635 2.026.113 2.017-1.162l-.004-17.081zm-19.622 5.75v-17.081c-.004-1.797 1.262-2.519 2.813-1.625l14.787 8.537c1.555.903 2.83 3.084 2.83 4.881v17.073c0 1.806-1.257 2.518-2.813 1.62l-14.791-8.536c-1.556-.899-2.826-3.076-2.826-4.869z"/>
        <path fill="#4F2E16" d="M95.485 125.872l.41-.233 10.58 6.108.406.709-.402.228-10.597-6.117-.397-.695"/>
        <path fill="#4F2E16" d="M95.49 127.98v-4.22l.397-.256.401.718.005 4.229-.398.233-.406-.704M107.857 137.519l-4.946-2.86c-1.34-.76-2.428-2.644-2.428-4.182l.009-3.413c-.009-1.546 1.08-2.173 2.415-1.4l4.946 2.86v1.685l-5.3-3.058-.39.233.39.708 5.296 3.055.008 6.372"/>
        <path fill="#C68B51" d="M194.534 130.97l-.009-12.909-13.798 8.027-.047 12.882 13.854-8"/>
        <path fill="#FFDDA8" d="M339.92 15.686L294.29 59.223l-113.486 66.735-1.84-1.088 43.601-45.36 115.582-64.848 1.771 1.024"/>
        <path fill="#DDA866" d="M294.533 59.612l45.386-43.926-115.564 64.878-43.55 45.394 113.728-66.346"/>
        <path fill="#AA6838" d="M178.044 254.807l2.761-128.849-2.06-1.17-40.855 42.72-.752 131.216 1.672.967 39.234-44.884"/>
        <path fill="#EDC893" d="M180.403 254.418l.402-128.46-41.234 42.526-.76 131.207 40.041-42.595 1.551-2.678"/>
    </g>
</svg>
