<svg xmlns="http://www.w3.org/2000/svg" width="119" height="25" viewBox="0 0 119 25">
    <g fill="none" fill-rule="evenodd">
        <path d="M-4.999-7h129.641v38.888H-4.999z"/>
        <path fill="#3CC" d="M116.397 14.81l-13.114.035c1.5-7.597 11.451-7.875 13.114-.034zm1.57 5.642c-3.47-.202-2.235.094-4.33 1.4-2.646 1.651-6.427 1.458-8.604-.936-1.082-1.19-1.57-2.263-1.768-4.182l15.475-.012c.74-4.796-3.139-8.738-6.894-9.526-5.31-1.114-9.182 2.207-10.428 5.99-2.457 7.466 4.746 13.907 11.907 11.184 1.982-.754 3.88-2.268 4.642-3.918zM35.426 14.832l-13.122.013c1.753-7.776 11.455-7.734 13.122-.013zm1.555 5.574c-4.526.087-2.033.149-4.364 1.488-4.154 2.386-9.77.644-10.331-5.177l15.45.009c.803-3.663-2.144-8.553-6.97-9.551-5.169-1.07-9.223 2.3-10.36 6.096-1.326 4.424.635 9.127 4.992 11.012 4.728 2.045 10.24-.659 11.583-3.877zM83.635 24.82l2.075-.007c.285-6.102-1.933-15.743 5.512-15.764 7.227-.02 5.644 9.148 5.565 15.686l2.289.081c.199-4.302.587-12.214-1.635-15.073-1.248-1.607-2.97-2.653-5.772-2.758-3.397-.126-4.328 1.034-5.913 2.636L85.752.489 83.554.417l.08 24.402zM51.878 17.438c-1.86-9.328 11.863-11.632 13.476-2.814 1.7 9.292-11.755 11.442-13.476 2.814zm-2.415-.435c.497 4.58 4.82 8.528 10.15 7.957 4.637-.496 8.629-4.605 8.12-9.878-.46-4.757-4.769-8.668-10.211-8.038-4.641.536-8.63 4.685-8.059 9.959zM69.28 19.843c.02 6.051 9.748 6.892 11.862 2.155.736-1.648.498-3.806-.632-5.016-2.258-2.416-8.092-2.047-8.688-4.643-.468-2.033 1.303-3.195 3.18-3.283 3.162-.15 3.443 1.613 3.952 2.71l1.94-.003c-.006-4-4.37-5.677-8.11-4.369-3.68 1.288-4.702 5.784-1.297 7.892 2.547 1.577 8.584 1.126 7.676 5.38-.372 1.748-2.253 2.43-4.369 2.23-2.113-.197-3.12-1.08-3.506-3.035l-2.009-.018zM42.106 24.8c.248-7.242-1.924-15.362 5.486-15.487l.02-2.073c-4.17-.345-6.648 1.976-7.46 5.385-.67 2.815-.326 8.828-.338 12.168l2.292.007zM.893 24.81l2.074-.006C3.253 18.702 1.035 9.061 8.48 9.04c7.228-.02 5.645 9.148 5.566 15.686l2.289.081c.199-4.303.586-12.214-1.635-15.073-1.249-1.607-2.97-2.653-5.773-2.758C5.53 6.85 4.598 8.01 3.013 9.612L3.01.48.811.408.893 24.81z"/>
        <path fill="#FF675D" d="M53.278 18.166c.15.4.527.947.797 1.288.289.364.667.74 1.093 1.025.879.586 1.98.936 3.256.982 2.087.076 3.854-.857 4.91-2.508.142-.224.232-.437.373-.683.223-.024.616.024.722-.192-.837.006-.656-.249-1.01-.394.032.312.098.279.193.484-.122.22-.737.642-.97.79a8.008 8.008 0 0 1-1.178.61c-.823.356-1.953.582-3.005.586-1.464.005-2.93-.567-4.108-1.269-.26-.155-.922-.59-1.026-.783.05-.13.119-.195.128-.371-.255.13-.1.278-.696.283.091.163.304.133.521.152z"/>
    </g>
</svg>
