<?xml version="1.0" encoding="UTF-8"?>
<svg width="84px" height="84px" viewBox="0 0 84 84" version="1.1" xmlns="http://www.w3.org/2000/svg" xmlns:xlink="http://www.w3.org/1999/xlink">
    <!-- Generator: sketchtool 57.1 (101010) - https://sketch.com -->
    <title>BB9528A7-35CE-4491-A905-9AE43733C357</title>
    <desc>Created with sketchtool.</desc>
    <defs>
        <circle id="path-1" cx="40" cy="40" r="40"></circle>
    </defs>
    <g id="Customer-" stroke="none" stroke-width="1" fill="none" fill-rule="evenodd">
        <g id="Customer---details-(orders)" transform="translate(-397.000000, -181.000000)">
            <g id="Group-46" transform="translate(399.000000, 183.000000)">
                <g id="Group-45">
                    <mask id="mask-2" fill="white">
                        <use xlink:href="#path-1"></use>
                    </mask>
                    <use id="Mask" stroke="#63312D" stroke-width="2.5" fill="#F9DD9D" xlink:href="#path-1"></use>
                    <g mask="url(#mask-2)" fill-rule="nonzero">
                        <g transform="translate(32.000000, -2.133333)">
                            <polygon id="Path" fill="#F9A287" points="15.4877433 18.0499597 13.0868781 19.7763901 10.6838501 18.0499597 8.28514773 19.7763901 5.89293432 18.0499597 3.49639503 19.7763901 1.10418162 18.0499597 1.10418162 1.02941189 15.4877433 1.02941189"></polygon>
                            <path d="M8.28731081,20.8078164 C8.04830556,20.8078164 7.80930058,20.7363014 7.60922855,20.5932715 L5.89509712,19.356366 L4.17664009,20.5932715 C3.77325155,20.8823529 3.21521262,20.8803386 2.82372005,20.5932715 L0.429343839,18.8688557 C0.156813197,18.6734489 4.31210623e-13,18.3722804 4.31210623e-13,18.0519743 L4.31210623e-13,1.03142627 C4.31210623e-13,0.462328832 0.495313488,7.42517159e-13 1.1074261,7.42517159e-13 L15.4920691,7.42517159e-13 C16.1041815,7.42517159e-13 16.5994952,0.462328832 16.5994952,1.03142627 L16.5994952,18.0519743 C16.5994952,18.3722804 16.440519,18.6734489 16.1701514,18.8688557 L13.7671231,20.5932715 C13.3680605,20.8803386 12.8100216,20.8803386 12.4142034,20.5932715 L10.6903388,19.3533442 L8.96971868,20.5912571 C8.76315796,20.7363014 8.52415271,20.8078164 8.28731081,20.8078164 Z M10.6860129,17.0185334 C10.9228551,17.0185334 11.1640229,17.0910556 11.3640952,17.2330781 L13.0868781,18.4730056 L14.38248,17.5423046 L14.38248,2.06083816 L2.21160772,2.06083816 L2.21160772,17.5443192 L3.49855783,18.4709913 L5.21809654,17.2330781 C5.6160778,16.9419823 6.17411673,16.9439969 6.57101658,17.2330781 L8.28514773,18.4709913 L10.0057678,17.2330781 C10.208003,17.0910556 10.4470079,17.0185334 10.6860129,17.0185334 Z" id="Shape" fill="#63312D"></path>
                        </g>
                    </g>
                </g>
                <rect id="Rectangle" stroke="#63312D" stroke-width="2" fill="#FFFFFF" x="52.2" y="46.8666667" width="15.0666667" height="9.73333333" rx="2"></rect>
            </g>
        </g>
    </g>
</svg>