<?xml version="1.0" encoding="UTF-8"?>
<svg width="17px" height="16px" viewBox="0 0 17 16" version="1.1" xmlns="http://www.w3.org/2000/svg" xmlns:xlink="http://www.w3.org/1999/xlink">
    <!-- Generator: sketchtool 57.1 (101010) - https://sketch.com -->
    <title>77FB866B-D49A-4B2F-A382-7F30F79DB11E</title>
    <desc>Created with sketchtool.</desc>
    <g id="Customer-" stroke="none" stroke-width="1" fill="none" fill-rule="evenodd">
        <g id="Shipments" transform="translate(-39.000000, -362.000000)" fill="#9FA8A8" fill-rule="nonzero">
            <g id="Group-9" transform="translate(0.000000, -2.000000)">
                <g id="Group-3-Copy-3" transform="translate(16.000000, 347.000000)">
                    <g id="Group-2" transform="translate(16.000000, 10.000000)">
                        <g id="Group">
                            <g id="analytics-board-bars" transform="translate(7.000000, 7.000000)">
                                <path d="M1.0625,16 L15.9375,16 C16.5243025,16 17,15.4030463 17,14.6666667 L17,1.33333333 C17,0.596953667 16.5243025,0 15.9375,0 L1.0625,0 C0.475697453,0 0,0.596953667 0,1.33333333 L0,14.6666667 C0,15.4030463 0.475697453,16 1.0625,16 Z M12,7.92307692 C12,7.41327562 12.4477153,7 13,7 C13.5522847,7 14,7.41327562 14,7.92307692 L14,12.0769231 C14,12.5867244 13.5522847,13 13,13 C12.4477153,13 12,12.5867244 12,12.0769231 L12,7.92307692 Z M9,3.90909091 C9,3.40701386 9.44771525,3 10,3 C10.5522847,3 11,3.40701386 11,3.90909091 L11,12.0909091 C11,12.5929861 10.5522847,13 10,13 C9.44771525,13 9,12.5929861 9,12.0909091 L9,3.90909091 Z M6,9.8 C6,9.3581722 6.44771525,9 7,9 C7.55228475,9 8,9.3581722 8,9.8 L8,12.2 C8,12.6418278 7.55228475,13 7,13 C6.44771525,13 6,12.6418278 6,12.2 L6,9.8 Z M3,7.85714286 C3,7.38375593 3.44771525,7 4,7 C4.55228475,7 5,7.38375593 5,7.85714286 L5,12.1428571 C5,12.6162441 4.55228475,13 4,13 C3.44771525,13 3,12.6162441 3,12.1428571 L3,7.85714286 Z" id="Shape"></path>
                            </g>
                        </g>
                    </g>
                </g>
            </g>
        </g>
    </g>
</svg>