<?xml version="1.0" encoding="UTF-8"?>
<svg width="18px" height="18px" viewBox="0 0 18 18" version="1.1" xmlns="http://www.w3.org/2000/svg" xmlns:xlink="http://www.w3.org/1999/xlink">
    <!-- Generator: sketchtool 57.1 (101010) - https://sketch.com -->
    <title>1DF4E27D-E38A-494E-8754-015383C3519C</title>
    <desc>Created with sketchtool.</desc>
    <g id="Customer-" stroke="none" stroke-width="1" fill="none" fill-rule="evenodd">
        <g id="Shipments" transform="translate(-38.000000, -229.000000)" fill="#9FA8A8" fill-rule="nonzero">
            <g id="Group-9" transform="translate(0.000000, -2.000000)">
                <g id="Group-3-Copy-6" transform="translate(16.000000, 215.000000)">
                    <g id="Group-2" transform="translate(16.000000, 10.000000)">
                        <g id="Group">
                            <g id="currency-dollar-circle" transform="translate(6.000000, 6.000000)">
                                <path d="M9,0 C4.02943725,0 0,4.02943725 0,9 C0,13.9705627 4.02943725,18 9,18 C13.9705627,18 18,13.9705627 18,9 C18,6.61305159 17.0517884,4.32386638 15.363961,2.63603897 C13.6761336,0.948211563 11.3869484,0 9,0 Z M10.098,13.94025 C10.005841,13.9539852 9.93759576,14.0330732 9.9375,14.12625 L9.9375,14.7 C9.9375,15.217767 9.51776695,15.6375 9,15.6375 C8.48223305,15.6375 8.0625,15.217767 8.0625,14.7 L8.0625,14.17125 C8.06270036,14.1214608 8.0430103,14.0736529 8.0078037,14.0384463 C7.97259711,14.0032397 7.92478924,13.9835496 7.875,13.98375 L7.01475,13.98375 C6.49698305,13.98375 6.07725,13.564017 6.07725,13.04625 C6.07725,12.528483 6.49698305,12.10875 7.01475,12.10875 L9.70575,12.10875 C10.1076425,12.1086396 10.4529406,11.8233882 10.5289049,11.4287402 C10.6048692,11.0340922 10.3901346,10.6410423 10.017,10.49175 L7.287,9.399 C6.14739616,8.94706714 5.45448504,7.78493612 5.59874663,6.56750899 C5.74300823,5.35008186 6.68833427,4.38207721 7.902,4.209 C7.9940424,4.19560642 8.06235324,4.11676167 8.0625,4.02375 L8.0625,3.45 C8.0625,2.93223305 8.48223305,2.5125 9,2.5125 C9.51776695,2.5125 9.9375,2.93223305 9.9375,3.45 L9.9375,3.9795 C9.9375,4.08305339 10.0214466,4.167 10.125,4.167 L10.98525,4.167 C11.503017,4.167 11.92275,4.58673305 11.92275,5.1045 C11.92275,5.62226695 11.503017,6.042 10.98525,6.042 L8.29425,6.042 C7.89198102,6.04113607 7.54588538,6.32631678 7.46981578,6.72132879 C7.39374618,7.11634081 7.60917977,7.50965824 7.983,7.65825 L10.713,8.751 C11.8526038,9.20293286 12.545515,10.3650639 12.4012534,11.582491 C12.2569918,12.7999181 11.3116657,13.7679228 10.098,13.941 L10.098,13.94025 Z" id="Shape"></path>
                            </g>
                        </g>
                    </g>
                </g>
            </g>
        </g>
    </g>
</svg>