<?xml version="1.0" encoding="UTF-8"?>
<svg width="18px" height="18px" viewBox="0 0 18 18" version="1.1" xmlns="http://www.w3.org/2000/svg" xmlns:xlink="http://www.w3.org/1999/xlink">
    <!-- Generator: sketchtool 57.1 (101010) - https://sketch.com -->
    <title>E543E395-684F-4D59-9203-796969C183E3</title>
    <desc>Created with sketchtool.</desc>
    <g id="Customer-" stroke="none" stroke-width="1" fill="none" fill-rule="evenodd">
        <g id="Shipments" transform="translate(-38.000000, -493.000000)" fill="#9FA8A8" fill-rule="nonzero">
            <g id="Group-9" transform="translate(0.000000, -2.000000)">
                <g id="Group-3-Copy-5" transform="translate(16.000000, 479.000000)">
                    <g id="Group-2" transform="translate(16.000000, 10.000000)">
                        <g id="Group">
                            <g id="cog" transform="translate(6.000000, 6.000000)">
                                <path d="M16.875,7.125 L15.4785,7.125 C15.3396633,6.6451504 15.1477262,6.18228766 14.90625,5.745 L15.894,4.758 C16.1051344,4.54700089 16.2237598,4.26074347 16.2237598,3.96225 C16.2237598,3.66375653 16.1051344,3.37749911 15.894,3.1665 L14.83275,2.10675 C14.3934377,1.66757032 13.6813123,1.66757032 13.242,2.10675 L12.2535,3.0945 C11.8168218,2.85284931 11.3544358,2.66090127 10.875,2.52225 L10.875,1.125 C10.875,0.503679656 10.3713203,0 9.75,0 L8.25,0 C7.62867966,0 7.125,0.503679656 7.125,1.125 L7.125,2.52225 C6.64543714,2.66122144 6.1828376,2.85315371 5.74575,3.0945 L4.75725,2.10675 C4.31793767,1.66757032 3.60581233,1.66757032 3.1665,2.10675 L2.10525,3.16725 C1.89411562,3.37824911 1.77549018,3.66450653 1.77549018,3.963 C1.77549018,4.26149347 1.89411562,4.54775089 2.10525,4.75875 L3.09375,5.7465 C2.85193967,6.18310116 2.65998401,6.64550549 2.5215,7.125 L1.125,7.125 C0.503679656,7.125 0,7.62867966 0,8.25 L0,9.75 C0,10.3713203 0.503679656,10.875 1.125,10.875 L2.5215,10.875 C2.6599312,11.3547524 2.85188798,11.817411 3.09375,12.25425 L2.1045,13.2435 C1.66532032,13.6828123 1.66532032,14.3949377 2.1045,14.83425 L3.165,15.89475 C3.61160827,16.3166721 4.30989173,16.3166721 4.7565,15.89475 L5.745,14.907 C6.1823147,15.1486115 6.64516444,15.3407948 7.125,15.48 L7.125,16.875 C7.125,17.4963203 7.62867966,18 8.25,18 L9.75,18 C10.3713203,18 10.875,17.4963203 10.875,16.875 L10.875,15.48 C11.3545711,15.3410521 11.8171732,15.1491187 12.25425,14.90775 L13.24275,15.8955 C13.6820623,16.3346797 14.3941877,16.3346797 14.8335,15.8955 L15.894,14.835 C16.3331797,14.3956877 16.3331797,13.6835623 15.894,13.24425 L14.90625,12.2565 C15.1479867,11.8193378 15.3399362,11.3564453 15.4785,10.8765 L16.875,10.8765 C17.1736286,10.8765003 17.4600043,10.7577679 17.6710259,10.546465 C17.8820475,10.335162 18.0003982,10.0486284 18,9.75 L18,8.25 C18,7.62867966 17.4963203,7.125 16.875,7.125 Z M9,12.75 C6.92893219,12.75 5.25,11.0710678 5.25,9 C5.25,6.92893219 6.92893219,5.25 9,5.25 C11.0710678,5.25 12.75,6.92893219 12.75,9 C12.7475204,11.0700399 11.0700399,12.7475204 9,12.75 Z" id="Shape"></path>
                            </g>
                        </g>
                    </g>
                </g>
            </g>
        </g>
    </g>
</svg>