<?xml version="1.0" encoding="UTF-8"?>
<svg width="19px" height="19px" viewBox="0 0 19 19" version="1.1" xmlns="http://www.w3.org/2000/svg" xmlns:xlink="http://www.w3.org/1999/xlink">
    <!-- Generator: sketchtool 58 (101010) - https://sketch.com -->
    <title>36B6884E-7343-403A-94D1-E465E6D9F8AF</title>
    <desc>Created with sketchtool.</desc>
    <g id="Customer-" stroke="none" stroke-width="1" fill="none" fill-rule="evenodd">
        <g id="Reports-details" transform="translate(-1178.000000, -94.000000)" fill="#818F90" fill-rule="nonzero">
            <g id="Group-5-Copy-4" transform="translate(1178.000000, 93.000000)">
                <path d="M9.5,1 C4.25329488,1 0,5.25329488 0,10.5 C0,15.7467051 4.25329488,20 9.5,20 C14.7467051,20 19,15.7467051 19,10.5 C18.9935577,5.25596569 14.7440343,1.00644231 9.5,1 Z M12.9945385,11.6882308 L10.0714615,15.3420769 C9.9328068,15.5160409 9.72246036,15.6173735 9.5,15.6173735 C9.27753964,15.6173735 9.0671932,15.5160409 8.92853846,15.3420769 L6.00546154,11.6882308 C5.82929197,11.4687735 5.79479408,11.1676547 5.91676589,10.9140407 C6.0387377,10.6604267 6.29550378,10.4993868 6.57692308,10.5 L7.30769231,10.5 C7.71128501,10.5 8.03846154,10.1728235 8.03846154,9.76923077 L8.03846154,6.11538462 C8.03846154,5.30819921 8.6928146,4.65384615 9.5,4.65384615 C10.3071854,4.65384615 10.9615385,5.30819921 10.9615385,6.11538462 L10.9615385,9.76923077 C10.9615385,10.1728235 11.288715,10.5 11.6923077,10.5 L12.4230769,10.5 C12.7044962,10.4993868 12.9612623,10.6604267 13.0832341,10.9140407 C13.2052059,11.1676547 13.170708,11.4687735 12.9945385,11.6882308 Z" id="Shape"></path>
            </g>
        </g>
    </g>
</svg>