<?xml version="1.0" encoding="UTF-8"?>
<svg width="19px" height="19px" viewBox="0 0 19 19" version="1.1" xmlns="http://www.w3.org/2000/svg" xmlns:xlink="http://www.w3.org/1999/xlink">
    <!-- Generator: sketchtool 58 (101010) - https://sketch.com -->
    <title>B6F4C103-F184-4754-B534-712B680267DB</title>
    <desc>Created with sketchtool.</desc>
    <g id="Customer-" stroke="none" stroke-width="1" fill="none" fill-rule="evenodd">
        <g id="Reports-details" transform="translate(-1052.000000, -93.000000)" fill="#818F90" fill-rule="nonzero">
            <g id="Group-5-Copy-5" transform="translate(1052.000000, 93.000000)">
                <g id="ic-print-24px">
                    <path d="M9.5,0 C4.25329488,0 0,4.25329488 0,9.5 C0,14.7467051 4.25329488,19 9.5,19 C14.7467051,19 19,14.7467051 19,9.5 C18.9935577,4.25596569 14.7440343,0.00644230989 9.5,0 Z M12.9945385,10.6882308 L10.0714615,14.3420769 C9.9328068,14.5160409 9.72246036,14.6173735 9.5,14.6173735 C9.27753964,14.6173735 9.0671932,14.5160409 8.92853846,14.3420769 L6.00546154,10.6882308 C5.82929197,10.4687735 5.79479408,10.1676547 5.91676589,9.91404069 C6.0387377,9.66042666 6.29550378,9.49938683 6.57692308,9.5 L7.30769231,9.5 C7.71128501,9.5 8.03846154,9.17282347 8.03846154,8.76923077 L8.03846154,5.11538462 C8.03846154,4.30819921 8.6928146,3.65384615 9.5,3.65384615 C10.3071854,3.65384615 10.9615385,4.30819921 10.9615385,5.11538462 L10.9615385,8.76923077 C10.9615385,9.17282347 11.288715,9.5 11.6923077,9.5 L12.4230769,9.5 C12.7044962,9.49938683 12.9612623,9.66042666 13.0832341,9.91404069 C13.2052059,10.1676547 13.170708,10.4687735 12.9945385,10.6882308 Z" id="Shape" transform="translate(9.500000, 9.500000) scale(1, -1) translate(-9.500000, -9.500000) "></path>
                </g>
            </g>
        </g>
    </g>
</svg>