<?xml version="1.0" encoding="UTF-8"?>
<svg width="14px" height="17px" viewBox="0 0 14 17" version="1.1" xmlns="http://www.w3.org/2000/svg" xmlns:xlink="http://www.w3.org/1999/xlink">
    <!-- Generator: sketchtool 57.1 (101010) - https://sketch.com -->
    <title>38380238-B619-4EFD-914F-DC7C3428E877</title>
    <desc>Created with sketchtool.</desc>
    <g id="Customer-" stroke="none" stroke-width="1" fill="none" fill-rule="evenodd">
        <g id="Shipments" transform="translate(-40.000000, -296.000000)" fill="#9FA8A8" fill-rule="nonzero">
            <g id="Group-9" transform="translate(0.000000, -2.000000)">
                <g id="Group-3-Copy-2" transform="translate(16.000000, 281.000000)">
                    <g id="Group-2" transform="translate(16.000000, 10.000000)">
                        <g id="Group">
                            <g id="Group-13" transform="translate(8.000000, 7.000000)">
                                <path d="M7,10 C3.30706892,10.0001342 0.246684723,12.8574572 0.00110532119,16.5345 C-0.00756619503,16.655215 0.0350812599,16.773997 0.118601043,16.86175 C0.201326775,16.9497923 0.316824414,16.999821 0.437768527,17 L13.5622161,17 C13.6831602,16.999821 13.7986578,16.9497923 13.8813835,16.86175 C13.9649924,16.7733433 14.0076143,16.6539976 13.9988793,16.53275 C13.7524188,12.8563981 10.6922836,10.0000727 7,10 Z" id="Path"></path>
                                <path d="M8.14300948,8.68916227 C10.3072613,7.84003169 11.468285,5.48183921 10.8215807,3.24863014 C10.1748765,1.01542108 7.93341781,-0.35736122 5.65036251,0.0815153962 C3.36730722,0.520392012 1.79451408,2.62639611 2.02180732,4.94022946 C2.24910055,7.25406281 4.20162765,9.01373075 6.52643808,9 C7.07983952,8.99683752 7.62790401,8.8914819 8.14300948,8.68916227 L8.14300948,8.68916227 Z" id="Path"></path>
                            </g>
                        </g>
                    </g>
                </g>
            </g>
        </g>
    </g>
</svg>