<?xml version="1.0" encoding="UTF-8"?>
<svg width="18px" height="13px" viewBox="0 0 18 13" version="1.1" xmlns="http://www.w3.org/2000/svg" xmlns:xlink="http://www.w3.org/1999/xlink">
    <!-- Generator: sketchtool 57.1 (101010) - https://sketch.com -->
    <title>5254F944-9A00-4336-8A15-A756AD78BA10</title>
    <desc>Created with sketchtool.</desc>
    <g id="Customer-" stroke="none" stroke-width="1" fill="none" fill-rule="evenodd">
        <g id="Shipments" transform="translate(-38.000000, -430.000000)" fill="#9FA8A8" fill-rule="nonzero">
            <g id="Group-9" transform="translate(0.000000, -2.000000)">
                <g id="Group-3-Copy-4" transform="translate(16.000000, 413.000000)">
                    <g id="Group-2" transform="translate(16.000000, 10.000000)">
                        <g id="Group">
                            <g id="human-resources-search-team" transform="translate(6.000000, 9.000000)">
                                <circle id="Oval" cx="12.6" cy="3.474" r="3"></circle>
                                <path d="M12.6,7.37399324 C11.5810869,7.37228619 10.5883304,7.69647734 9.7668,8.2992 C9.634887,8.39609522 9.60498588,8.58084144 9.6996,8.7144 C10.3602653,9.64596742 10.7396857,10.7475778 10.7928,11.8884 C10.8010852,12.0481637 10.9328221,12.1735773 11.0928,12.174 L17.0928,12.174 C17.1755597,12.1738773 17.2545924,12.1395718 17.3112,12.0792 C17.3684119,12.0185783 17.3975772,11.9367412 17.3916,11.8536 C17.2228905,9.33175007 15.1274866,7.37278615 12.6,7.37399324 L12.6,7.37399324 Z" id="Path"></path>
                                <path d="M4.8,7.374 C2.27300554,7.37409205 0.17884513,9.33339923 0.0108,11.8548 C0.00486625287,11.937576 0.0340490632,12.0190265 0.0912,12.0792 C0.147807583,12.1395718 0.226840334,12.1738773 0.3096,12.174 L9.2904,12.174 C9.37315967,12.1738773 9.45219242,12.1395718 9.5088,12.0792 C9.56601187,12.0185783 9.59517721,11.9367412 9.5892,11.8536 C9.42055199,9.33267295 7.32656196,7.37404985 4.8,7.374 Z" id="Path"></path>
                                <path d="M5.88,6.2724 C7.32589468,5.70514161 8.10155208,4.12976027 7.66950151,2.63787361 C7.23745094,1.14598695 5.73997587,0.22890506 4.2147109,0.522094881 C2.68944594,0.815284703 1.63869334,2.22219258 1.79054355,3.76793997 C1.94239375,5.31368737 3.24683924,6.48922671 4.8,6.48005394 C5.16971677,6.47794125 5.53586803,6.40755885 5.88,6.2724 L5.88,6.2724 Z" id="Path"></path>
                            </g>
                        </g>
                    </g>
                </g>
            </g>
        </g>
    </g>
</svg>