<?xml version="1.0" encoding="UTF-8"?>
<svg width="18px" height="18px" viewBox="0 0 18 18" version="1.1" xmlns="http://www.w3.org/2000/svg" xmlns:xlink="http://www.w3.org/1999/xlink">
    <!-- Generator: sketchtool 57.1 (101010) - https://sketch.com -->
    <title>4FF27C3C-F13C-4298-A1C7-E4FAD77E4A42</title>
    <desc>Created with sketchtool.</desc>
    <g id="Customer-" stroke="none" stroke-width="1" fill="none" fill-rule="evenodd">
        <g id="Shipments" transform="translate(-38.000000, -97.000000)" fill="#9FA8A8" fill-rule="nonzero">
            <g id="Group-9" transform="translate(0.000000, -2.000000)">
                <g id="Group-3" transform="translate(16.000000, 83.000000)">
                    <g id="Group-2" transform="translate(16.000000, 10.000000)">
                        <g id="Group">
                            <g id="house-2" transform="translate(6.000000, 6.000000)">
                                <path d="M17.78025,8.46975 L9.53025,0.21975 C9.23737511,-0.0730364537 8.76262489,-0.0730364537 8.46975,0.21975 L0.21975,8.46975 C0.00531906332,8.68424569 -0.0588164295,9.00677746 0.0572415164,9.28699092 C0.173299462,9.56720437 0.446703077,9.74993524 0.75,9.75 L1.6875,9.75 C1.79105339,9.75 1.875,9.83394661 1.875,9.9375 L1.875,17.25 C1.875,17.6642136 2.21078644,18 2.625,18 L6.9375,18 C7.04105339,18 7.125,17.9160534 7.125,17.8125 L7.125,14.25 C7.125,13.2144661 7.96446609,12.375 9,12.375 C10.0355339,12.375 10.875,13.2144661 10.875,14.25 L10.875,17.8125 C10.875,17.9160534 10.9589466,18 11.0625,18 L15.375,18 C15.7892136,18 16.125,17.6642136 16.125,17.25 L16.125,9.9375 C16.125,9.83394661 16.2089466,9.75 16.3125,9.75 L17.25,9.75 C17.5532969,9.74993524 17.8267005,9.56720437 17.9427585,9.28699092 C18.0588164,9.00677746 17.9946809,8.68424569 17.78025,8.46975 Z" id="Path"></path>
                            </g>
                        </g>
                    </g>
                </g>
            </g>
        </g>
    </g>
</svg>