<?xml version="1.0" encoding="UTF-8"?>
<svg width="4px" height="16px" viewBox="0 0 4 16" version="1.1" xmlns="http://www.w3.org/2000/svg" xmlns:xlink="http://www.w3.org/1999/xlink">
    <!-- Generator: sketchtool 57.1 (101010) - https://sketch.com -->
    <title>BE714369-1C5A-4613-8730-4CCF3D2D9951</title>
    <desc>Created with sketchtool.</desc>
    <g id="Customer-" stroke="none" stroke-width="1" fill="none" fill-rule="evenodd">
        <g id="Shipments" transform="translate(-1332.000000, -216.000000)">
            <g id="Group-8" transform="translate(276.000000, 144.000000)">
                <g id="Icon-/-Fill-/-Inactive-/-Settings" transform="translate(1048.000000, 70.000000)">
                    <g id="ic-more-horiz-48px">
                        <polygon id="Path" points="0 0 19.2 0 19.2 19.2 0 19.2"></polygon>
                    </g>
                    <g id="ic-more-vert-18px" transform="translate(8.000000, 1.600000)" fill="#B4B4B4" fill-rule="nonzero">
                        <path d="M2,4.2 C2.996,4.2 3.8,3.396 3.8,2.4 C3.8,1.404 2.996,0.6 2,0.6 C1.004,0.6 0.2,1.404 0.2,2.4 C0.2,3.396 1.004,4.2 2,4.2 Z M2,6.6 C1.004,6.6 0.2,7.404 0.2,8.4 C0.2,9.396 1.004,10.2 2,10.2 C2.996,10.2 3.8,9.396 3.8,8.4 C3.8,7.404 2.996,6.6 2,6.6 Z M2,12.6 C1.004,12.6 0.2,13.404 0.2,14.4 C0.2,15.396 1.004,16.2 2,16.2 C2.996,16.2 3.8,15.396 3.8,14.4 C3.8,13.404 2.996,12.6 2,12.6 Z" id="Shape"></path>
                    </g>
                </g>
            </g>
        </g>
    </g>
</svg>