<?xml version="1.0" encoding="UTF-8"?>
<svg width="52px" height="52px" viewBox="0 0 52 52" version="1.1" xmlns="http://www.w3.org/2000/svg" xmlns:xlink="http://www.w3.org/1999/xlink">
    <!-- Generator: sketchtool 58 (101010) - https://sketch.com -->
    <title>C5AA4CFF-C1D8-48E2-97F6-7DDF24901DF4</title>
    <desc>Created with sketchtool.</desc>
    <g id="Ops-Manager" stroke="none" stroke-width="1" fill="none" fill-rule="evenodd">
        <g id="Shipments---change-ownership-(success)" transform="translate(-787.000000, -185.000000)" fill-rule="nonzero">
            <g id="Group-87" transform="translate(637.000000, 144.000000)">
                <g id="check-(1)" transform="translate(150.000000, 41.000000)">
                    <path d="M37.8944,18.2416 C37.8528,17.816 37.648,17.432 37.3168,17.16 L34.8448,15.128 C34.1632,14.568 33.1536,14.6672 32.5936,15.3488 L22.1984,28 L18.0224,24.4208 C17.352,23.8496 16.3408,23.9248 15.7664,24.5952 L13.6848,27.0256 C13.4064,27.3488 13.272,27.7632 13.304,28.1888 C13.336,28.6144 13.5344,29.0032 13.8576,29.2816 L21.7552,36.0496 C22.048,36.3008 22.4128,36.4352 22.7936,36.4352 C22.8416,36.4352 22.888,36.4336 22.936,36.4288 C23.368,36.3904 23.7568,36.1856 24.032,35.8512 L37.5392,19.4128 C37.8096,19.0832 37.936,18.6656 37.8944,18.2416 Z" id="Path" fill="#33cccd"></path>
                </g>
            </g>
        </g>
    </g>
</svg>