<?xml version="1.0" encoding="UTF-8"?>
<svg width="13px" height="13px" viewBox="0 0 13 13" version="1.1" xmlns="http://www.w3.org/2000/svg" xmlns:xlink="http://www.w3.org/1999/xlink">
    <!-- Generator: sketchtool 57.1 (101010) - https://sketch.com -->
    <title>01EB6F54-F249-4469-B600-435AAEAA8DF7</title>
    <desc>Created with sketchtool.</desc>
    <g id="Customer-" stroke="none" stroke-width="1" fill="none" fill-rule="evenodd">
        <g id="Settings---Roles-(ops)" transform="translate(-300.000000, -326.000000)" fill="#FF7266" fill-rule="nonzero">
            <g id="Group-6" transform="translate(300.000000, 322.000000)">
                <g id="real-estate-action-building-add" transform="translate(0.000000, 4.000000)">
                    <path d="M6.5,0 C2.91014913,0 0,2.91014913 0,6.5 C0,10.0898509 2.91014913,13 6.5,13 C10.0898509,13 13,10.0898509 13,6.5 C12.9955921,2.91197652 10.0880235,0.00440789624 6.5,0 Z M9,7.5 L8,7.5 C7.72385763,7.5 7.5,7.72385763 7.5,8 L7.5,9 C7.5,9.55228475 7.05228475,10 6.5,10 C5.94771525,10 5.5,9.55228475 5.5,9 L5.5,8 C5.5,7.72385763 5.27614237,7.5 5,7.5 L4,7.5 C3.44771525,7.5 3,7.05228475 3,6.5 C3,5.94771525 3.44771525,5.5 4,5.5 L5,5.5 C5.27614237,5.5 5.5,5.27614237 5.5,5 L5.5,4 C5.5,3.44771525 5.94771525,3 6.5,3 C7.05228475,3 7.5,3.44771525 7.5,4 L7.5,5 C7.5,5.27614237 7.72385763,5.5 8,5.5 L9,5.5 C9.55228475,5.5 10,5.94771525 10,6.5 C10,7.05228475 9.55228475,7.5 9,7.5 Z" id="Shape"></path>
                </g>
            </g>
        </g>
    </g>
</svg>