<?xml version="1.0" encoding="UTF-8"?>
<svg width="18px" height="18px" viewBox="0 0 18 18" version="1.1" xmlns="http://www.w3.org/2000/svg" xmlns:xlink="http://www.w3.org/1999/xlink">
    <!-- Generator: sketchtool 57.1 (101010) - https://sketch.com -->
    <title>B56F7B51-904A-4F4B-AF55-AA35094B877A</title>
    <desc>Created with sketchtool.</desc>
    <g id="Customer-" stroke="none" stroke-width="1" fill="none" fill-rule="evenodd">
        <g id="Customer---details-(orders)" transform="translate(-299.000000, -480.000000)" fill="#818F90" fill-rule="nonzero">
            <g id="Group-6" transform="translate(299.000000, 479.000000)">
                <g id="read-email-at-alternate" transform="translate(0.000000, 1.000000)">
                    <path d="M9,0.375 C4.18965694,0.331680221 0.251712552,4.18977875 0.1965,9 C0.251712552,13.8102213 4.18965694,17.6683198 9,17.625 C10.7684441,17.6310186 12.4983822,17.1086943 13.968,16.125 C14.2461313,15.9383734 14.4035711,15.617542 14.3810133,15.28336 C14.3584556,14.9491779 14.1593273,14.6524154 13.8586383,14.50486 C13.5579493,14.3573045 13.2013813,14.3813734 12.92325,14.568 C11.7625358,15.3442139 10.3963279,15.7558262 9,15.75 C5.2248143,15.7942143 2.12581388,12.7750539 2.0715,9 C2.12581388,5.22494609 5.2248143,2.2057857 9,2.25 C12.7751857,2.2057857 15.8741861,5.22494609 15.9285,9 L15.9285,9.66825 C15.903266,10.4544631 15.2586179,11.0787527 14.472,11.0787527 C13.6853821,11.0787527 13.040734,10.4544631 13.0155,9.66825 L13.0155,9 C13.0441275,7.36939976 12.0838774,5.88338253 10.585509,5.23951231 C9.08714065,4.59564209 7.34818509,4.92177227 6.18494029,6.06481129 C5.02169548,7.2078503 4.66514708,8.94082479 5.28266551,10.4502444 C5.90018393,11.9596641 7.36914848,12.9458033 9,12.94575 C10.0913237,12.9459737 11.136127,12.5038062 11.89575,11.72025 C12.7794932,12.8040832 14.2464734,13.2199225 15.5675154,12.7610712 C16.8885575,12.30222 17.7819002,11.0665454 17.8035,9.66825 L17.8035,9 C17.7482874,4.18977875 13.8103431,0.331680221 9,0.375 Z M9,11.07075 C7.86497119,11.0333473 6.97149618,10.089364 6.99650247,8.9539944 C7.02150875,7.81862483 7.95567927,6.91489505 9.09125421,6.92750191 C10.2268291,6.94010877 11.1407059,7.86435511 11.1405,9 C11.1195513,10.1621718 10.1622281,11.0882998 9,11.07075 L9,11.07075 Z" id="Shape"></path>
                </g>
            </g>
        </g>
    </g>
</svg>