<?xml version="1.0" encoding="UTF-8"?>
<svg width="18px" height="18px" viewBox="0 0 18 18" version="1.1" xmlns="http://www.w3.org/2000/svg" xmlns:xlink="http://www.w3.org/1999/xlink">
    <!-- Generator: sketchtool 57.1 (101010) - https://sketch.com -->
    <title>6455084A-11EE-47D0-9C61-386FD5E985EB</title>
    <desc>Created with sketchtool.</desc>
    <g id="Customer-" stroke="none" stroke-width="1" fill="none" fill-rule="evenodd">
        <g id="Payments" transform="translate(-38.000000, -163.000000)" fill="#9FA8A8" fill-rule="nonzero">
            <g id="Group-9" transform="translate(0.000000, -2.000000)">
                <g id="Group-3-Copy" transform="translate(16.000000, 149.000000)">
                    <g id="Group-2" transform="translate(16.000000, 10.000000)">
                        <g id="Group">
                            <g id="shipment-box" transform="translate(6.000000, 6.000000)">
                                <path d="M16.49475,5.06250012 C16.6353382,5.06261408 16.7641802,4.98408283 16.8285029,4.8590723 C16.8928257,4.73406177 16.8818224,4.58357473 16.8,4.46925 L14.1,0.68925 C13.9590605,0.491812278 13.731331,0.374734128 13.48875,0.374999548 L9.5625,0.374999548 C9.35539322,0.374999548 9.1875,0.542893219 9.1875,0.75 L9.1875,4.6875 C9.1875,4.89460678 9.35539322,5.06250012 9.5625,5.06250012 L16.49475,5.06250012 Z" id="Path"></path>
                                <path d="M0.75,6.1875 C0.542893219,6.1875 0.375,6.35539322 0.375,6.5625 L0.375,16.875 C0.375,17.2892136 0.710786438,17.625 1.125,17.625 L16.875,17.625 C17.2892136,17.625 17.625,17.2892136 17.625,16.875 L17.625,6.5625 C17.625,6.35539322 17.4571068,6.1875 17.25,6.1875 L0.75,6.1875 Z M9.375,13.5 C9.375,13.2928932 9.54289322,13.125 9.75,13.125 L15,13.125 C15.2071068,13.125 15.375,13.2928932 15.375,13.5 L15.375,15 C15.375,15.2071068 15.2071068,15.375 15,15.375 L9.75,15.375 C9.54289322,15.375 9.375,15.2071068 9.375,15 L9.375,13.5 Z" id="Shape"></path>
                                <path d="M8.0625,0.75 C8.0625,0.542893219 7.89460678,0.374999548 7.6875,0.374999548 L4.51125,0.374999548 C4.26866905,0.374734128 4.04093947,0.491812278 3.9,0.68925 L1.2,4.46925 C1.11817761,4.58357473 1.10717434,4.73406177 1.17149708,4.8590723 C1.23581981,4.98408283 1.36466183,5.06261408 1.50525,5.06250012 L7.6875,5.06250012 C7.89460678,5.06250012 8.0625,4.89460678 8.0625,4.6875 L8.0625,0.75 Z" id="Path"></path>
                            </g>
                        </g>
                    </g>
                </g>
            </g>
        </g>
    </g>
</svg>