<svg xmlns="http://www.w3.org/2000/svg" width="22" height="24" viewBox="0 0 22 24">
    <g fill="none" fill-rule="nonzero">
        <path fill="#DB785A" d="M5.57 1.01v2.97H2.6v1.035h15.95V1.011z"/>
        <path fill="#63312D" d="M18.55 5.208H2.6a.193.193 0 0 1-.192-.193V3.98c0-.106.086-.192.193-.192h2.775V1.01c0-.106.087-.193.193-.193h12.98c.107 0 .193.087.193.193v4.004a.193.193 0 0 1-.192.193zM2.793 4.822h15.564V1.203H5.762V3.98a.193.193 0 0 1-.193.193H2.793v.65z"/>
        <path fill="#D1D1D1" d="M2.6 5.015h15.95v18.261H2.6z"/>
        <path fill="#63312D" d="M18.55 23.469H2.6a.193.193 0 0 1-.192-.193V5.016c0-.107.086-.194.193-.194H18.55c.106 0 .192.087.192.193v18.261a.193.193 0 0 1-.192.193zm-15.757-.385h15.564V5.208H2.793v17.876z"/>
        <path fill="#F9A287" d="M4.028 1.01v2.97H1.059v1.035h15.95V1.011z"/>
        <path fill="#FFC8BB" d="M1.06 3.98h.752v1.035H1.06zM4.028 1.01h12.98v.771H4.028z"/>
        <path fill="#63312D" d="M17.008 5.208H1.06a.193.193 0 0 1-.192-.193V3.98c0-.106.086-.192.192-.192h2.776V1.01c0-.106.086-.193.193-.193h12.98c.107 0 .193.087.193.193v4.004a.193.193 0 0 1-.193.193zM1.252 4.822h15.564V1.203H4.22V3.98a.193.193 0 0 1-.193.193H1.252v.65z"/>
        <path fill="#FFC8BB" d="M4.028 1.01L1.059 3.98h2.969z"/>
        <path fill="#63312D" d="M4.028 4.172H1.06a.192.192 0 0 1-.136-.329L3.89.875a.193.193 0 1 1 .33.136V3.98a.192.192 0 0 1-.193.192zm-2.503-.385h2.31V1.476l-2.31 2.311z"/>
        <path fill="#F8F3F3" d="M1.06 5.015h15.948v18.261H1.06z"/>
        <path fill="#63312D" d="M17.008 23.469H1.06a.193.193 0 0 1-.192-.193V5.016c0-.107.086-.194.192-.194h15.95c.106 0 .192.087.192.193v18.261a.193.193 0 0 1-.193.193zm-15.756-.385h15.564V5.208H1.252v17.876z"/>
        <path fill="#52B8D9" d="M13.919 15.327h7.706v7.95H13.92z"/>
        <path fill="#63312D" d="M21.625 23.469H13.92a.193.193 0 0 1-.193-.193v-7.949c0-.106.087-.193.193-.193h7.706c.107 0 .193.087.193.193v7.95a.193.193 0 0 1-.193.192zm-7.513-.385h7.32V15.52h-7.32v7.564z"/>
        <path fill="#82D9FF" d="M12.364 15.327h7.706v7.95h-7.706z"/>
        <path fill="#CAF4FF" d="M13.134 16.098h6.937v-.77h-7.707v7.948h.77z"/>
        <path fill="#63312D" d="M20.07 23.469h-7.706a.193.193 0 0 1-.193-.193v-7.949c0-.106.086-.193.193-.193h7.706c.106 0 .193.087.193.193v7.95a.193.193 0 0 1-.193.192zm-7.514-.385h7.322V15.52h-7.322v7.564z"/>
        <path fill="#F8F3F3" d="M17.22 17.874l-.335.259-.335-.259-.334.259-.334-.259-.334.259-.333-.259v-2.547h2.005z"/>
        <path fill="#63312D" d="M15.548 18.325a.194.194 0 0 1-.118-.04l-.333-.258a.193.193 0 0 1-.075-.153v-2.547c0-.106.086-.193.193-.193h2.005c.106 0 .193.087.193.193v2.547c0 .06-.028.116-.075.153l-.335.258a.192.192 0 0 1-.235 0l-.217-.167-.217.167a.193.193 0 0 1-.236 0l-.216-.167-.216.167a.195.195 0 0 1-.118.04zm1.002-.643c.042 0 .084.013.118.04l.217.168.142-.11v-2.26h-1.62v2.26l.141.11.217-.168a.192.192 0 0 1 .235 0l.216.167.217-.168a.192.192 0 0 1 .117-.04z"/>
        <path fill="#F9DD9D" d="M3.66 17.57h4.9v4.083h-4.9z"/>
        <path fill="#63312D" d="M6.016 20.54c-.342 0-.627-.166-.633-.348-.004-.097.077-.243.185-.246.12-.004.222.16.434.19l-.015-.461c-.266-.091-.578-.203-.59-.568-.013-.361.25-.544.55-.597l-.003-.08c-.001-.04.043-.079.106-.08.054-.003.11.033.11.072l.003.072c.177 0 .512.033.518.23.003.077-.043.235-.168.24-.094.003-.152-.086-.337-.094l.014.415c.263.088.57.212.582.597.012.353-.208.574-.54.64l.003.082c.002.04-.051.08-.105.08-.063.003-.11-.032-.111-.072l-.003-.071zM6 19.225l-.012-.34c-.127.03-.18.098-.177.166.003.083.079.132.189.174zm.177.521l.013.382c.096-.026.171-.083.168-.186-.003-.094-.077-.151-.18-.196z"/>
        <g fill="#63312D">
            <path d="M3.247 7.423H14.82v.386H3.247zM3.247 9.254H14.82v.385H3.247zM3.247 11.084H14.82v.385H3.247zM3.247 12.914h6.672v.386H3.247z"/>
        </g>
    </g>
</svg>
