<svg xmlns="http://www.w3.org/2000/svg" width="258" height="157" viewBox="0 0 258 157">
    <g fill="none" fill-rule="nonzero" transform="matrix(-1 0 0 1 258 0)">
        <ellipse cx="129" cy="151" fill="#3F3D56" rx="129" ry="6"/>
        <path fill="#000" d="M237.787 151.55c-3.34.033-7.762-.667-8.652-1.334-.676-.513-.948-2.363-1.036-3.216H228s.187 2.976 1.068 3.666c.882.69 5.31 1.36 8.652 1.333.964 0 1.298-.44 1.28-1.073-.126.377-.495.617-1.213.623z" opacity=".2"/>
        <path fill="#3CC" d="M122 145.328L84.661 153l-.848-.085L51 149.59v-41.77L91.167 101l29.136 3.41.008.185.003.09z"/>
        <path fill="#000" d="M122 145.392L84.844 153l-.844-.085v-42.463L120.32 105z" opacity=".1"/>
        <path fill="#000" d="M120 104.648l-.011.008L83.664 110 51 107.75 90.985 101l29.004 3.375.008.183z" opacity=".05"/>
        <path fill="#3F3D56" d="M163 147.328L125.661 155l-.848-.085L92 151.59v-41.77l40.167-6.82 29.136 3.41.008.185.003.09z"/>
        <path fill="#000" d="M163 147.392L125.844 155l-.844-.085v-42.463L161.32 107z" opacity=".1"/>
        <path fill="#000" d="M162 107.648l-.011.008L125.664 113 93 110.75l39.985-6.75 29.004 3.375.008.183z" opacity=".05"/>
        <path fill="#3F3D56" d="M137 106.328L99.661 114l-.848-.085L66 110.59V68.82L106.167 62l29.136 3.41.008.185.003.09z"/>
        <path fill="#000" d="M137 106.392L99.844 114l-.844-.085V71.452L135.32 66z" opacity=".1"/>
        <path fill="#000" d="M136 66.648l-.011.008L99.664 72 67 69.75 106.985 63l29.004 3.375.008.183z" opacity=".05"/>
        <path fill="#3F3D56" d="M159 108.014L139.543 112l-.444-.045L122 110.228V88.542L142.932 85l15.184 1.772.006.096v.046z"/>
        <path fill="#000" d="M159 109.035L139.446 113l-.446-.045V90.84L158.117 88z" opacity=".1"/>
        <path fill="#000" d="M157 87.026l-.006.006L138.042 90 121 88.75 141.861 85l15.133 1.876.006.102z" opacity=".05"/>
        <path fill="#3F3D56" d="M106 66.017L86.543 70l-.444-.042L69 68.23V46.542L89.932 43l15.184 1.772.006.097v.045z"/>
        <path fill="#000" d="M106 66.038L86.446 70 86 69.958V47.84L105.117 45z" opacity=".1"/>
        <path fill="#000" d="M105 45.026l-.006.006L86.042 48 69 46.75 89.861 43l15.133 1.876.006.102z" opacity=".05"/>
        <path fill="#3CC" d="M140 66.017L120.543 70l-.444-.042L103 68.23V46.542L123.932 43l15.184 1.772.006.097v.045z"/>
        <path fill="#000" d="M141 65.038L121.446 69l-.446-.042V46.84L140.117 44z" opacity=".1"/>
        <path fill="#000" d="M140 44.026l-.006.006L121.042 47 104 45.75 124.861 42l15.133 1.876.006.102z" opacity=".05"/>
        <path fill="#3F3D56" d="M151 43.017L131.543 47l-.444-.042L114 45.23V23.542L134.932 20l15.184 1.772.006.097v.045z"/>
        <path fill="#000" d="M150 44.038L130.446 48l-.446-.042V25.84L149.117 23z" opacity=".1"/>
        <path fill="#000" d="M150 22.026l-.006.006L131.042 25 114 23.75 134.861 20l15.133 1.876.006.102z" opacity=".05"/>
        <path fill="#3CC" d="M115 45.017L95.543 49l-.444-.042L78 47.23V25.542L98.932 22l15.184 1.772.006.097v.045z"/>
        <path fill="#000" d="M115 45.038L95.446 49 95 48.958V26.84L114.117 24z" opacity=".1"/>
        <path fill="#000" d="M114 24.026l-.006.006L95.042 27 78 25.75 98.861 22l15.133 1.876.006.102z" opacity=".05"/>
        <path fill="#3F3D56" d="M125 23.014L105.543 27l-.444-.045L88 25.228V3.542L108.932 0l15.184 1.772.006.096v.046z"/>
        <path fill="#000" d="M125 23.035L105.446 27l-.446-.045V4.84L124.117 2z" opacity=".1"/>
        <path fill="#000" d="M124 2.026l-.006.006L105.042 5 88 3.75 108.861 0l15.133 1.876.006.102z" opacity=".05"/>
    </g>
</svg>
