<svg xmlns="http://www.w3.org/2000/svg" width="30" height="22" viewBox="0 0 30 22">
    <g fill="none" fill-rule="nonzero">
        <path fill="#52B8D9" d="M10.9.28h14.87v15.338H10.9z"/>
        <path fill="#63312D" d="M25.77 15.875H10.9a.257.257 0 0 1-.257-.257V.28c0-.142.116-.257.257-.257h14.87c.143 0 .258.115.258.257v15.338a.257.257 0 0 1-.258.257zm-14.612-.514h14.355V.537H11.158v14.824z"/>
        <path fill="#82D9FF" d="M7.9.28h14.87v15.338H7.9z"/>
        <path fill="#CAF4FF" d="M8.929 1.309H22.77V.28H7.9V15.62H8.93z"/>
        <path fill="#63312D" d="M22.77 15.875H7.9a.257.257 0 0 1-.257-.257V.28c0-.142.115-.257.257-.257h14.87c.142 0 .257.115.257.257v15.338a.258.258 0 0 1-.257.257zm-14.613-.514h14.356V.537H8.157v14.824z"/>
        <path fill="#F8F3F3" d="M17.27 5.195l-.646.499-.646-.499-.646.499-.643-.499-.644.499-.644-.499V.28h3.87z"/>
        <path fill="#63312D" d="M15.332 5.95a.26.26 0 0 1-.157-.053l-.486-.376-.487.376a.258.258 0 0 1-.315 0l-.644-.498a.258.258 0 0 1-.1-.204V.28c0-.141.116-.257.258-.257h3.869c.141 0 .257.116.257.257v4.916c0 .08-.037.155-.1.204l-.646.498a.257.257 0 0 1-.314 0l-.49-.377-.487.377a.257.257 0 0 1-.158.054zm.645-1.011c.055 0 .11.017.158.053l.489.377.388-.3V.537h-3.354V5.07l.386.3.488-.377a.258.258 0 0 1 .314 0l.487.377.487-.377a.258.258 0 0 1 .157-.053z"/>
        <path fill="#F9DD9D" d="M29.464 11.838a1.544 1.544 0 0 0-2.084-.424l-6.724 4.204h-2.112a1.793 1.793 0 1 0 0-3.587h-5.92s-1.387-2.109-4.161-2.109c-2.775 0-4.107 1.998-4.107 1.998v7.73h17.448l7.343-5.708c.649-.505.788-1.43.317-2.104z"/>
        <path fill="#63312D" d="M21.803 19.908H4.356a.257.257 0 0 1-.257-.258v-7.73c0-.05.014-.1.043-.142.057-.086 1.441-2.112 4.32-2.112 2.53 0 3.947 1.647 4.294 2.109h5.788c1.13 0 2.05.92 2.05 2.05 0 .61-.268 1.16-.693 1.536h.68l6.662-4.166a1.802 1.802 0 0 1 2.06 2.95l-7.342 5.708a.254.254 0 0 1-.158.055zm-17.19-.515h17.102l7.274-5.654a1.287 1.287 0 0 0-1.473-2.107l-6.723 4.204a.255.255 0 0 1-.137.04h-2.111a.257.257 0 0 1 0-.515c.847 0 1.536-.69 1.536-1.536 0-.846-.69-1.536-1.536-1.536h-5.92a.258.258 0 0 1-.215-.115c-.014-.02-1.352-1.993-3.947-1.993-2.332 0-3.605 1.504-3.85 1.824v7.388z"/>
        <path fill="#63312D" d="M12.86 15.36h5.685v.515H12.86z"/>
        <path fill="#F7A085" d="M4.356 20.805H.257V9.923h4.1z"/>
        <path fill="#63312D" d="M4.356 21.062H.257A.257.257 0 0 1 0 20.805V9.923c0-.142.115-.257.257-.257h4.099c.142 0 .257.115.257.257v10.882a.257.257 0 0 1-.257.257zm-3.842-.514H4.1V10.18H.514v10.368z"/>
    </g>
</svg>
