<svg xmlns="http://www.w3.org/2000/svg" width="27" height="31" viewBox="0 0 27 31">
    <g fill="none" fill-rule="nonzero">
        <path fill="#82D9FF" d="M15.593 14.137H7.968a7.7 7.7 0 0 0-7.7 7.7v8.677h23.025v-8.677a7.7 7.7 0 0 0-7.7-7.7z"/>
        <path fill="#CAF4FF" d="M1.327 22.078a6.882 6.882 0 0 1 6.883-6.882h8.442c1.856 0 3.559.657 4.889 1.752a7.684 7.684 0 0 0-5.948-2.811H7.968a7.7 7.7 0 0 0-7.7 7.7v8.677h1.06v-8.436z"/>
        <path fill="#F9DD9D" d="M18.717 7.201a6.936 6.936 0 1 1-13.872 0 6.936 6.936 0 0 1 13.872 0z"/>
        <path fill="#FFEECF" d="M5.904 7.201A6.932 6.932 0 0 1 12.31.291a7.02 7.02 0 0 0-.53-.026 6.936 6.936 0 0 0 0 13.872c.18 0 .355-.013.53-.027a6.932 6.932 0 0 1-6.406-6.909z"/>
        <path fill="#EFC36A" d="M11.611.295c.057-.002.113-.013.17-.013h-.17v.013zM11.611 14.158h.17c-.057 0-.113-.012-.17-.013v.013zM15.316.265h-3.535a6.936 6.936 0 0 1 0 13.871h3.535a6.936 6.936 0 1 0 0-13.871z"/>
        <path fill="#63312D" d="M23.293 30.779H.268a.265.265 0 0 1-.265-.265v-8.677c0-4.392 3.573-7.965 7.965-7.965h7.625c4.392 0 7.965 3.573 7.965 7.965v8.677a.264.264 0 0 1-.265.265zm-22.76-.53h22.495v-8.412c0-4.1-3.335-7.435-7.435-7.435H7.968c-4.1 0-7.435 3.335-7.435 7.435v8.412z"/>
        <path fill="#63312D" d="M4.58 21.093h.53v9.42h-.53zM19.02 21.258h.529v9.256h-.53z"/>
        <path fill="#52B8D9" d="M18.993 14.137h-3.4a7.7 7.7 0 0 1 7.7 7.7v8.677h3.4v-8.677a7.7 7.7 0 0 0-7.7-7.7z"/>
        <path fill="#63312D" d="M26.693 30.779h-3.4a.265.265 0 0 1-.264-.265v-8.677c0-4.1-3.336-7.435-7.435-7.435a.265.265 0 0 1 0-.53h3.4c4.39 0 7.964 3.573 7.964 7.965v8.677a.264.264 0 0 1-.265.265zm-3.135-.53h2.87v-8.412c0-4.1-3.335-7.435-7.435-7.435h-.543c2.985 1.15 5.108 4.05 5.108 7.435v8.412z"/>
        <path fill="#F8F3F3" d="M15.593 14.137H7.968a7.73 7.73 0 0 0-.959.066l4.602 6.91 4.625-6.943a7.542 7.542 0 0 0-.643-.033z"/>
        <path fill="#63312D" d="M11.611 21.377a.264.264 0 0 1-.22-.118l-4.602-6.91a.264.264 0 0 1 .187-.409c.372-.046.688-.067.992-.067h7.625c.224 0 .445.014.664.033a.266.266 0 0 1 .199.41l-4.624 6.944a.266.266 0 0 1-.22.117zm-4.138-6.956l4.138 6.214 4.15-6.23a5.99 5.99 0 0 0-.168-.003H7.968c-.158 0-.322.006-.495.02z"/>
        <path fill="#F9A287" d="M5.191 5.033h13.18l-.646 1.344a2.935 2.935 0 0 1-2.646 1.665H8.483a2.936 2.936 0 0 1-2.646-1.665l-.646-1.344z"/>
        <path fill="#FFC8BB" d="M16.423 6.982H8.727a2.061 2.061 0 0 1-1.859-1.17l-.374-.78H5.19l.645 1.345a2.936 2.936 0 0 0 2.646 1.665h6.597a2.93 2.93 0 0 0 2.509-1.425 2.06 2.06 0 0 1-1.165.365z"/>
        <path fill="#63312D" d="M15.08 8.306H8.482A3.216 3.216 0 0 1 5.598 6.49l-.645-1.343a.264.264 0 0 1 .238-.38h13.18a.263.263 0 0 1 .238.38l-.645 1.343a3.216 3.216 0 0 1-2.885 1.816zM5.611 5.297l.463.965a2.685 2.685 0 0 0 2.408 1.515h6.596c1.021 0 1.966-.595 2.408-1.515l.464-.965H5.612zM11.78 14.402h-.169a.265.265 0 0 1-.264-.265v-.009c0-.071.028-.14.079-.189a.332.332 0 0 1 .191-.075l.163.008a.265.265 0 0 1 0 .53z"/>
        <path fill="#DB785A" d="M18.366 5.033h3.536A6.935 6.935 0 0 0 15.316.265h-3.535c1.915 0 3.649.776 4.904 2.032.47.47.874 1.008 1.195 1.598.195.36.356.742.486 1.138z"/>
        <path fill="#63312D" d="M21.902 5.297h-3.536a.265.265 0 0 1-.251-.182 6.683 6.683 0 0 0-.468-1.094 6.713 6.713 0 0 0-1.149-1.538A6.627 6.627 0 0 0 11.781.53a.265.265 0 0 1 0-.529h3.536a7.185 7.185 0 0 1 6.837 4.95.264.264 0 0 1-.252.347zm-3.347-.53h2.97A6.656 6.656 0 0 0 15.316.53h-.815a7.19 7.19 0 0 1 2.371 1.58 7.057 7.057 0 0 1 1.683 2.658z"/>
        <path fill="#63312D" d="M15.316 14.402h-3.535a.265.265 0 0 1 0-.53c.452 0 .904-.045 1.344-.135a6.686 6.686 0 0 0 4.803-3.94 6.624 6.624 0 0 0 .524-2.596c0-.452-.045-.905-.135-1.345a6.48 6.48 0 0 0-.202-.74.265.265 0 0 1 .252-.348h3.535c.114 0 .215.073.252.182.24.734.363 1.49.363 2.251 0 3.97-3.23 7.2-7.2 7.2zm-.823-.53h.824a6.68 6.68 0 0 0 6.67-6.67c0-.642-.093-1.282-.28-1.905h-2.982a7.233 7.233 0 0 1-.31 4.707 7.237 7.237 0 0 1-3.922 3.868z"/>
        <path fill="#63312D" d="M11.782 14.402a.265.265 0 0 1-.001-.53h.001a.265.265 0 1 1 0 .53z"/>
        <path fill="#F9A287" d="M17.88 3.895a6.966 6.966 0 0 0-1.195-1.598 6.936 6.936 0 0 0-11.49 2.736h13.171a6.901 6.901 0 0 0-.486-1.138z"/>
        <path fill="#FFC8BB" d="M12.26.289c-.159-.011-.317-.024-.48-.024-3.072 0-5.673 2-6.585 4.767h1.06A6.94 6.94 0 0 1 12.26.289z"/>
        <g fill="#63312D">
            <path d="M18.366 5.297H5.196a.264.264 0 0 1-.252-.347A7.185 7.185 0 0 1 11.78 0c1.923 0 3.73.75 5.091 2.11.492.491.909 1.05 1.24 1.658.196.362.366.76.506 1.182a.265.265 0 0 1-.252.347zm-12.794-.53H17.99a6.399 6.399 0 0 0-.344-.745 6.691 6.691 0 0 0-1.149-1.538A6.627 6.627 0 0 0 11.781.53a6.655 6.655 0 0 0-6.21 4.238z"/>
            <path d="M11.78 14.402c-.037 0-.074-.002-.111-.005l-.064-.004A7.155 7.155 0 0 1 4.58 7.201c0-.76.122-1.518.363-2.25a.265.265 0 0 1 .252-.183h13.17c.115 0 .217.073.252.182.096.292.167.554.218.8a7.233 7.233 0 0 1-.42 4.254 7.217 7.217 0 0 1-5.184 4.251 7.254 7.254 0 0 1-1.45.147zM5.39 5.297a6.636 6.636 0 0 0-.28 1.904 6.628 6.628 0 0 0 6.508 6.663l.163.008a6.71 6.71 0 0 0 1.344-.135 6.686 6.686 0 0 0 4.803-3.94 6.624 6.624 0 0 0 .524-2.596c0-.452-.045-.905-.135-1.345a6.094 6.094 0 0 0-.144-.56H5.39v.001z"/>
            <path d="M11.78 14.402c-.02 0-.039 0-.058-.002-.018 0-.035-.002-.053-.003l-.064-.003a.265.265 0 0 1-.258-.271c.003-.146.102-.249.27-.259l.164.009a.265.265 0 0 1 0 .529zM17.132 11.877a.266.266 0 0 1-.264-.264c0-.06.02-.12.06-.169a6.679 6.679 0 0 0 1-1.646.266.266 0 0 1 .508.103c0 .035-.007.07-.021.103a7.208 7.208 0 0 1-1.079 1.777.263.263 0 0 1-.204.096z"/>
            <path d="M18.172 10.165a.266.266 0 0 1-.265-.264c0-.035.007-.07.021-.104a6.624 6.624 0 0 0 .524-2.596.265.265 0 0 1 .53 0c0 .972-.19 1.915-.566 2.802a.265.265 0 0 1-.244.162zM11.782 14.402a.265.265 0 0 1 0-.53 6.71 6.71 0 0 0 1.344-.135.265.265 0 0 1 .312.206.264.264 0 0 1-.206.312 7.265 7.265 0 0 1-1.45.147z"/>
            <path d="M13.178 14.26a.265.265 0 0 1-.052-.523 6.686 6.686 0 0 0 3.803-2.293.265.265 0 1 1 .409.337 7.217 7.217 0 0 1-4.106 2.474.306.306 0 0 1-.054.006z"/>
        </g>
        <path fill="#EFC36A" d="M7.922 20.223h11.362v10.29H7.922z"/>
        <path fill="#63312D" d="M19.284 30.779H7.922a.265.265 0 0 1-.264-.265v-10.29c0-.147.118-.266.264-.266h11.362c.146 0 .265.119.265.265v10.29a.265.265 0 0 1-.265.266zm-11.097-.53h10.832v-9.761H8.187v9.762z"/>
        <path fill="#F9DD9D" d="M4.845 20.223h11.362v10.29H4.845z"/>
        <path fill="#FFEECF" d="M5.904 21.282h10.303v-1.059H4.845v10.291h1.059z"/>
        <path fill="#63312D" d="M16.206 30.779H4.845a.265.265 0 0 1-.265-.265v-10.29c0-.147.119-.266.265-.266h11.361c.146 0 .265.119.265.265v10.29a.264.264 0 0 1-.265.266zm-11.096-.53H15.94v-9.761H5.11v9.762z"/>
        <path fill="#F8F3F3" d="M9.259 20.223h2.533v3.43H9.259z"/>
        <path fill="#63312D" d="M11.792 23.918H9.259a.265.265 0 0 1-.265-.264v-3.43c0-.147.119-.266.265-.266h2.533c.146 0 .265.119.265.265v3.43a.265.265 0 0 1-.265.265zm-2.268-.529h2.003v-2.901H9.524v2.901zM11.782 11.868c-.971 0-1.88-.48-2.432-1.284l.436-.3a2.42 2.42 0 0 0 1.996 1.054 2.42 2.42 0 0 0 1.995-1.053l.436.3a2.951 2.951 0 0 1-2.431 1.283z"/>
    </g>
</svg>
