<svg xmlns="http://www.w3.org/2000/svg" width="30" height="30" viewBox="0 0 30 30">
    <g fill="none" fill-rule="nonzero">
        <path fill="#52B8D9" d="M4.077 27.002h24.14v2.697H4.077z"/>
        <path fill="#63312D" d="M28.217 29.954H4.077a.255.255 0 0 1-.255-.255v-2.697c0-.14.115-.255.255-.255h24.14c.14 0 .255.114.255.255v2.697c0 .14-.114.255-.255.255zm-23.885-.51h23.63v-2.187H4.333v2.187z"/>
        <path fill="#82D9FF" d="M1.753 27.002h24.14v2.697H1.753z"/>
        <path fill="#CAF4FF" d="M2.916 28.164h22.977v-1.162H1.753v2.697h1.163z"/>
        <path fill="#63312D" d="M25.893 29.954H1.753a.255.255 0 0 1-.255-.255v-2.697c0-.14.115-.255.255-.255h24.14c.14 0 .255.114.255.255v2.697c0 .14-.114.255-.255.255zm-23.885-.51h23.63v-2.187H2.008v2.187z"/>
        <path fill="#F9DD9D" d="M4.236 11.813h21.499v15.189H4.236z"/>
        <path fill="#FFEECF" d="M14.985 11.813h1.041v15.189h-1.04zM4.236 11.813h1.02v15.189h-1.02z"/>
        <path fill="#63312D" d="M25.735 27.257h-21.5a.255.255 0 0 1-.254-.255v-15.19c0-.14.114-.254.255-.254h21.498c.14 0 .255.114.255.255v15.189c0 .14-.114.255-.254.255zm-21.245-.51h20.99v-14.68H4.49v14.68z"/>
        <path fill="#F8F3F3" d="M29.707 15.68h-10.75l-3.972-3.867h10.75z"/>
        <path fill="#63312D" d="M14.73 11.813h.51v15.189h-.51z"/>
        <path fill="#F8F3F3" d="M.263 15.68h10.75l3.972-3.867H4.236z"/>
        <path fill="#63312D" d="M29.707 15.934h-10.75a.255.255 0 0 1-.177-.072l-3.973-3.867a.255.255 0 0 1 .178-.437h10.75c.065 0 .13.026.177.072l3.973 3.867a.254.254 0 1 1-.177.437zm-10.645-.51H29.08l-3.449-3.357H15.612l3.45 3.358z"/>
        <path fill="#63312D" d="M11.013 15.934H.263a.254.254 0 0 1-.177-.437l3.972-3.867a.254.254 0 0 1 .178-.073h10.75a.254.254 0 0 1 .176.437l-3.972 3.867a.249.249 0 0 1-.177.073zM.89 15.424H10.91l3.449-3.357H4.339L.89 15.425z"/>
        <path fill="#82D9FF" d="M16.492 5.64V.255h-4.586V5.64H9.665l4.534 4.534 4.534-4.534z"/>
        <path fill="#CAF4FF" d="M11.906.255h1.019V5.64h-1.02zM11.036 5.64H9.665l4.534 4.534.731-.732z"/>
        <path fill="#63312D" d="M14.199 10.428a.256.256 0 0 1-.18-.074L9.483 5.821a.255.255 0 1 1 .18-.435h1.987V.254c0-.14.114-.255.255-.255h4.586c.14 0 .255.114.255.255v5.13h1.985a.255.255 0 0 1 .18.435l-4.533 4.534a.253.253 0 0 1-.18.074zm-3.92-4.534l3.92 3.919 3.919-3.919h-1.626a.255.255 0 0 1-.255-.254V.51h-4.076v5.13c0 .14-.114.254-.255.254H10.28z"/>
        <path fill="#52B8D9" d="M16.492.255h2.038V5.64h-2.038zM18.733 5.64L14.2 10.174h2.038l4.534-4.534z"/>
        <g fill="#63312D">
            <path d="M18.53 5.894h-2.038a.255.255 0 0 1-.255-.254V.255c0-.14.114-.255.255-.255h2.038c.14 0 .255.114.255.255V5.64a.254.254 0 0 1-.255.254zm-1.783-.51h1.528V.51h-1.528v4.875z"/>
            <path d="M16.237 10.428H14.2a.255.255 0 0 1-.18-.435l4.533-4.533a.255.255 0 0 1 .18-.075h2.039a.255.255 0 0 1 .18.436l-4.534 4.533a.256.256 0 0 1-.18.074zm-1.423-.51h1.318l4.024-4.023h-1.318l-4.024 4.024z"/>
        </g>
    </g>
</svg>
