<svg xmlns="http://www.w3.org/2000/svg" width="18" height="12" viewBox="0 0 18 12">
    <g fill="none" fill-rule="evenodd">
        <path d="M-3-6h24v24H-3z"/>
        <g fill="#b13231">
            <path d="M12.805 6.632c-.735 0-1.461.143-2.13.421a.405.405 0 0 0-.242.27.37.37 0 0 0 .085.34 5.584 5.584 0 0 1 1.433 3.312v.02c.012.21.202.374.432.373h5.294a.34.34 0 0 0 .235-.093c.061-.06.093-.14.087-.22-.188-2.495-2.459-4.428-5.194-4.423z"/>
            <circle cx="12.316" cy="2.842" r="2.842"/>
            <path d="M10.421 11.056C10.243 8.608 8.03 6.688 5.32 6.633 2.61 6.578.303 8.405.003 10.844a.444.444 0 0 0 .13.368c.1.1.242.157.391.156h9.57c.09 0 .176-.033.238-.093a.28.28 0 0 0 .088-.221l.001.002z"/>
            <circle cx="4.737" cy="2.842" r="2.842"/>
        </g>
    </g>
</svg>
