<svg xmlns="http://www.w3.org/2000/svg" width="18" height="17" viewBox="0 0 18 17">
    <g fill="none" fill-rule="evenodd">
        <path d="M-3-4h24v24H-3z"/>
        <path fill="#b13231" fill-rule="nonzero" d="M13.125 0c-1.231 0-2.357.21-3.234.61-.439.199-.824.449-1.125.773-.302.324-.516.76-.516 1.242V5.93c-.048-.024-.092-.048-.14-.07-.878-.4-2.004-.61-3.235-.61-1.231 0-2.357.21-3.234.61-.439.199-.824.449-1.125.773C.214 6.957 0 7.393 0 7.875v6c0 .486.235.917.54 1.242a3.46 3.46 0 0 0 1.124.774c.88.396 1.994.609 3.211.609 1.217 0 2.33-.213 3.21-.61a3.46 3.46 0 0 0 1.126-.773c.304-.325.539-.756.539-1.242v-.328c.058.029.104.067.164.094.88.396 1.994.609 3.211.609 1.217 0 2.33-.213 3.21-.61a3.46 3.46 0 0 0 1.126-.773c.304-.325.539-.756.539-1.242v-9c0-.482-.214-.918-.516-1.242-.301-.324-.686-.574-1.125-.774C15.482.211 14.356 0 13.125 0zm0 1.5c1.047 0 1.986.212 2.602.492.307.14.54.297.656.422.116.125.117.175.117.211 0 .036-.001.086-.117.21-.116.126-.349.283-.656.423-.616.28-1.555.492-2.602.492s-1.986-.212-2.602-.492c-.307-.14-.54-.297-.656-.422-.116-.125-.117-.175-.117-.211 0-.036.001-.086.117-.21.116-.126.349-.283.656-.423.616-.28 1.555-.492 2.602-.492zM9.75 4.57c.048.024.092.048.14.07.878.4 2.004.61 3.235.61 1.231 0 2.357-.21 3.234-.61.05-.022.093-.046.141-.07v1.055c0 .04 0 .11-.117.234-.118.126-.347.283-.656.422-.62.28-1.569.469-2.602.469s-1.982-.19-2.602-.469c-.31-.14-.538-.296-.656-.422-.117-.125-.117-.195-.117-.234V4.57zM4.875 6.75c1.047 0 1.986.212 2.602.492.307.14.54.297.656.422.116.125.117.175.117.211 0 .036-.001.086-.117.21-.116.126-.349.283-.656.423C6.86 8.788 5.922 9 4.875 9s-1.986-.212-2.602-.492c-.307-.14-.54-.297-.656-.422-.116-.125-.117-.175-.117-.211 0-.036.001-.086.117-.21.116-.126.349-.283.656-.423.616-.28 1.555-.492 2.602-.492zm4.875.797c.058.029.104.067.164.094.88.396 1.994.609 3.211.609 1.217 0 2.33-.213 3.21-.61.061-.026.107-.064.165-.093v1.078c0 .04 0 .11-.117.234-.118.126-.347.283-.656.422-.62.28-1.569.469-2.602.469s-1.982-.19-2.602-.469c-.31-.14-.538-.296-.656-.422-.117-.125-.117-.195-.117-.234V7.547zM1.5 9.82c.048.024.092.048.14.07.878.4 2.004.61 3.235.61 1.231 0 2.357-.21 3.234-.61.05-.022.093-.046.141-.07v1.055c0 .04 0 .11-.117.234-.118.126-.347.283-.656.422-.62.28-1.569.469-2.602.469s-1.982-.19-2.602-.469c-.31-.14-.538-.296-.656-.422-.117-.125-.117-.195-.117-.234V9.82zm8.25.727c.058.029.104.067.164.094.88.396 1.994.609 3.211.609 1.217 0 2.33-.213 3.21-.61.061-.026.107-.064.165-.093v1.078c0 .04 0 .11-.117.234-.118.126-.347.283-.656.422-.62.28-1.569.469-2.602.469s-1.982-.19-2.602-.469c-.31-.14-.538-.296-.656-.422-.117-.125-.117-.195-.117-.234v-1.078zm-8.25 2.25c.058.029.104.067.164.094.88.396 1.994.609 3.211.609 1.217 0 2.33-.213 3.21-.61.061-.026.107-.064.165-.093v1.078c0 .04 0 .11-.117.234-.118.126-.347.283-.656.422-.62.28-1.569.469-2.602.469s-1.982-.19-2.602-.469c-.31-.14-.538-.296-.656-.422-.117-.125-.117-.195-.117-.234v-1.078z"/>
    </g>
</svg>
