<svg xmlns="http://www.w3.org/2000/svg" width="28" height="29" viewBox="0 0 28 29">
    <g fill="none" fill-rule="nonzero">
        <path fill="#52B8D9" d="M25.917 24.828H4.181V6.675l7.443-4.465V.244h3.908c.172 0 .341.046.49.132l10.386 6.017a.98.98 0 0 1 .488.846v16.61c0 .54-.439.979-.979.979z"/>
        <path fill="#63312D" d="M25.917 25.073H4.182a.245.245 0 0 1-.245-.245V6.675c0-.086.045-.165.12-.21l7.323-4.394V.245c0-.135.11-.245.244-.245h3.908c.215 0 .427.057.613.165L26.531 6.18c.376.218.61.624.61 1.058v16.61c-.001.675-.55 1.224-1.224 1.224zm-21.49-.49h21.49c.405 0 .734-.329.734-.734V7.24c0-.26-.14-.503-.365-.634L15.9.588a.734.734 0 0 0-.368-.099h-3.663V2.21a.244.244 0 0 1-.119.21L4.426 6.815v17.768z"/>
        <path fill="#82D9FF" d="M22.003 24.828H1.246a.978.978 0 0 1-.979-.979V7.24c0-.349.186-.672.488-.846L11.134.376a.978.978 0 0 1 .981 0l10.379 6.017a.98.98 0 0 1 .488.846v16.61c0 .54-.439.979-.979.979z"/>
        <path fill="#CAF4FF" d="M1.246 24.41V7.8c0-.35.186-.672.488-.847L12.112.937a.977.977 0 0 1 .942-.017l-.939-.544a.978.978 0 0 0-.981 0L.755 6.393a.979.979 0 0 0-.488.846v16.61c0 .54.438.978.979.978h.097a.969.969 0 0 1-.097-.417z"/>
        <path fill="#63312D" d="M22.003 25.073H1.246a1.225 1.225 0 0 1-1.223-1.224V7.24c0-.434.234-.84.61-1.058L11.01.165a1.23 1.23 0 0 1 1.227 0L22.616 6.18c.376.218.61.624.61 1.058v16.61c0 .675-.549 1.224-1.223 1.224zM11.624.489a.73.73 0 0 0-.367.1L.877 6.604a.737.737 0 0 0-.365.634v16.61c0 .405.33.734.734.734h20.757c.404 0 .734-.329.734-.734V7.24c0-.26-.14-.503-.366-.634L11.993.588a.73.73 0 0 0-.369-.099z"/>
        <path fill="#EEE" d="M3.92 10.626h15.74v14.202H3.92z"/>
        <path fill="#63312D" d="M19.66 25.073H3.92a.245.245 0 0 1-.245-.245V10.626c0-.135.11-.245.244-.245h15.74c.135 0 .245.11.245.245v14.201c0 .136-.11.246-.245.246zm-15.496-.49h15.25V10.87H4.165v13.713zM22.8 6.43h3.915v.49H22.8z"/>
        <path fill="#F9A287" d="M3.92 10.626h15.74v2.093H3.92zM3.92 12.719h15.74v2.093H3.92zM3.92 14.812h15.74v2.093H3.92z"/>
        <g fill="#63312D">
            <path d="M19.66 12.963H3.92a.245.245 0 0 1-.245-.244v-2.093c0-.135.11-.244.244-.244h15.74c.135 0 .245.11.245.244v2.093c0 .135-.11.244-.245.244zm-15.496-.489h15.25v-1.603H4.165v1.603z"/>
            <path d="M19.66 15.056H3.92a.245.245 0 0 1-.245-.245V12.72c0-.135.11-.245.244-.245h15.74c.135 0 .245.11.245.245v2.092c0 .135-.11.245-.245.245zm-15.496-.49h15.25v-1.603H4.165v1.604z"/>
            <path d="M19.66 17.149H3.92a.244.244 0 0 1-.245-.245v-2.093c0-.135.11-.244.244-.244h15.74c.135 0 .245.11.245.244v2.093c0 .136-.11.245-.245.245zm-15.496-.49h15.25v-1.603H4.165v1.604z"/>
        </g>
        <path fill="#F9DD9D" d="M12.296 22.308h6.685v6.055h-6.685z"/>
        <path fill="#63312D" d="M18.98 28.607h-6.684a.245.245 0 0 1-.245-.245v-6.054c0-.135.11-.245.245-.245h6.685c.134 0 .244.11.244.245v6.054c0 .136-.11.245-.245.245zm-6.44-.49h6.196v-5.565H12.54v5.566z"/>
        <path fill="#F9DD9D" d="M10.485 22.308h6.685v6.055h-6.685z"/>
        <path fill="#FFEECF" d="M11.464 23.287h5.705v-.979h-6.684v6.055h.979z"/>
        <path fill="#63312D" d="M17.17 28.607h-6.685a.245.245 0 0 1-.245-.245v-6.054c0-.135.11-.245.245-.245h6.684c.135 0 .245.11.245.245v6.054c0 .136-.11.245-.245.245zm-6.44-.49h6.195v-5.565h-6.196v5.566z"/>
        <path fill="#F8F3F3" d="M13.082 22.308h1.49v2.019h-1.49z"/>
        <path fill="#63312D" d="M14.572 24.57h-1.49a.245.245 0 0 1-.245-.244v-2.018c0-.135.11-.245.245-.245h1.49c.135 0 .245.11.245.245v2.018c0 .135-.11.245-.245.245zm-1.245-.489h1v-1.529h-1v1.53z"/>
        <path fill="#F9DD9D" d="M18.98 22.308h6.685v6.055H18.98z"/>
        <path fill="#63312D" d="M25.665 28.607H18.98a.245.245 0 0 1-.245-.245v-6.054c0-.135.11-.245.245-.245h6.685c.135 0 .244.11.244.245v6.054c0 .136-.11.245-.244.245zm-6.44-.49h6.195v-5.565h-6.195v5.566z"/>
        <path fill="#F9DD9D" d="M17.17 22.308h6.684v6.055h-6.685z"/>
        <path fill="#FFEECF" d="M18.075 23.213h5.779v-.905h-6.685v6.055h.906z"/>
        <path fill="#63312D" d="M23.854 28.607h-6.685a.245.245 0 0 1-.244-.245v-6.054c0-.135.11-.245.244-.245h6.685c.135 0 .245.11.245.245v6.054c0 .136-.11.245-.245.245zm-6.44-.49h6.195v-5.565h-6.195v5.566z"/>
        <path fill="#F8F3F3" d="M19.767 22.308h1.49v2.019h-1.49z"/>
        <path fill="#63312D" d="M21.257 24.57h-1.49a.245.245 0 0 1-.245-.244v-2.018c0-.135.11-.245.245-.245h1.49c.135 0 .245.11.245.245v2.018c0 .135-.11.245-.245.245zm-1.246-.489h1.001v-1.529h-1v1.53z"/>
        <path fill="#F9DD9D" d="M17.33 16.254h6.685v6.054H17.33z"/>
        <path fill="#63312D" d="M24.015 22.552H17.33a.245.245 0 0 1-.245-.244v-6.055c0-.135.11-.244.245-.244h6.685c.134 0 .244.11.244.244v6.055c0 .135-.11.244-.244.244zm-6.44-.489h6.195v-5.565h-6.196v5.565z"/>
        <path fill="#F9DD9D" d="M15.52 16.254h6.684v6.054h-6.685z"/>
        <path fill="#FFEECF" d="M16.424 17.159h5.78v-.905h-6.685v6.054h.905z"/>
        <path fill="#63312D" d="M22.204 22.552h-6.685a.245.245 0 0 1-.244-.244v-6.055c0-.135.109-.244.244-.244h6.685c.135 0 .244.11.244.244v6.055c0 .135-.11.244-.244.244zm-6.44-.489h6.195v-5.565h-6.195v5.565z"/>
        <path fill="#F8F3F3" d="M18.116 16.254h1.49v2.018h-1.49z"/>
        <path fill="#63312D" d="M19.606 18.516h-1.49a.245.245 0 0 1-.244-.245v-2.018c0-.135.11-.244.244-.244h1.49c.135 0 .245.11.245.244v2.018c0 .136-.11.245-.245.245zm-1.245-.49h1v-1.528h-1v1.529z"/>
    </g>
</svg>
