<svg xmlns="http://www.w3.org/2000/svg" width="16" height="16" viewBox="0 0 16 16">
    <g fill="none" fill-rule="evenodd">
        <path d="M-4-4h24v24H-4z"/>
        <path fill="#b13231" fill-rule="nonzero" d="M15 6.333h-1.241a5.97 5.97 0 0 0-.509-1.226l.878-.878a1 1 0 0 0 0-1.414l-.943-.942a1 1 0 0 0-1.414 0l-.879.878a5.937 5.937 0 0 0-1.225-.509V1a1 1 0 0 0-1-1H7.333a1 1 0 0 0-1 1v1.242a5.98 5.98 0 0 0-1.226.509l-.878-.878a1 1 0 0 0-1.414 0l-.944.942a1 1 0 0 0 0 1.415l.879.878c-.215.388-.386.8-.509 1.225H1a1 1 0 0 0-1 1v1.334a1 1 0 0 0 1 1h1.241c.123.426.294.837.509 1.226l-.88.879a1 1 0 0 0 0 1.414l.943.943a1.03 1.03 0 0 0 1.415 0l.879-.878c.388.214.8.385 1.226.509V15a1 1 0 0 0 1 1h1.334a1 1 0 0 0 1-1v-1.24a5.977 5.977 0 0 0 1.226-.509l.878.878a1 1 0 0 0 1.414 0l.943-.942a1 1 0 0 0 0-1.414l-.878-.878c.215-.389.385-.8.509-1.227H15a1 1 0 0 0 1-1.001V7.333a1 1 0 0 0-1-1zm-7 5a3.333 3.333 0 1 1 0-6.666 3.333 3.333 0 0 1 0 6.666z"/>
    </g>
</svg>
