<svg xmlns="http://www.w3.org/2000/svg" width="31" height="22" viewBox="0 0 31 22">
    <g fill="none" fill-rule="nonzero">
        <path fill="#84DBFF" d="M12.302 8.855l4.012-2.316a.508.508 0 0 0-.086-.92L9.115 3.121a.509.509 0 0 0-.423.04L6.908 4.19a.508.508 0 0 0-.057.841l4.885 3.785a.509.509 0 0 0 .566.038z"/>
        <path fill="#CAF4FF" d="M8.285 4.893a.203.203 0 0 1 .023-.337l1.851-1.069-1.044-.366a.509.509 0 0 0-.423.04L6.908 4.19a.508.508 0 0 0-.057.841l4.885 3.785a.509.509 0 0 0 .566.038l.63-.363-4.647-3.599z"/>
        <path fill="#63312D" d="M16.442 6.76L12.43 9.074a.76.76 0 0 1-.849-.057L6.696 5.233a.76.76 0 0 1 .086-1.263l1.784-1.03a.76.76 0 0 1 .634-.059l7.113 2.499c.285.1.478.348.507.648.027.3-.117.58-.378.731zM7.035 4.41a.252.252 0 0 0-.126.203.25.25 0 0 0 .098.218l4.885 3.785a.254.254 0 0 0 .283.02l4.012-2.317a.25.25 0 0 0 .125-.244.25.25 0 0 0-.168-.216L9.03 3.36a.253.253 0 0 0-.21.02L7.034 4.41z"/>
        <path fill="#F9A287" d="M.906 12.087l3.482 6.031c.28.487.902.653 1.389.372L26.974 6.252a1 1 0 0 0 .366-1.365l-.25-.433a4.999 4.999 0 0 0-6.829-1.83L5.976 10.871l-2.053-1.14a1 1 0 0 0-.985.008l-1.66.959a1.018 1.018 0 0 0-.372 1.39z"/>
        <path fill="#63312D" d="M27.1 6.472L5.905 18.71a1.273 1.273 0 0 1-1.736-.465l-3.482-6.03a1.273 1.273 0 0 1 .465-1.737l1.66-.958c.378-.219.852-.223 1.235-.01l1.928 1.07 14.16-8.176a5.26 5.26 0 0 1 7.176 1.922l.25.433c.346.6.14 1.368-.46 1.713zM1.406 10.918a.764.764 0 0 0-.279 1.042l3.482 6.03c.21.365.678.49 1.042.28L26.847 6.032a.747.747 0 0 0 .272-1.018l-.25-.433a4.75 4.75 0 0 0-6.48-1.736L6.103 11.092a.254.254 0 0 1-.251.002l-2.054-1.14a.75.75 0 0 0-.734.006l-1.66.958z"/>
        <path fill="#D1D1D1" d="M3.923 9.732l2.053 1.14 2.597-1.5-2.053-1.14a1 1 0 0 0-.985.009L2.937 9.74a.999.999 0 0 1 .986-.008z"/>
        <path fill="#63312D" d="M8.7 9.593l-2.596 1.499a.254.254 0 0 1-.251.002l-2.054-1.14a.75.75 0 0 0-.734.006.254.254 0 0 1-.254-.44l2.597-1.5c.379-.219.852-.223 1.236-.01l2.053 1.14a.254.254 0 0 1 .004.443zm-2.726.987l2.084-1.203-1.661-.923a.75.75 0 0 0-.735.006l-1.724.996c.036.016.072.034.108.053l1.928 1.07z"/>
        <path fill="#D1D1D1" d="M22.784 1.167L20.26 2.624a4.999 4.999 0 0 1 6.829 1.83l.25.433a1 1 0 0 1-.366 1.365l2.582-1.49c.487-.282.653-.903.372-1.39l-.198-.343a5.085 5.085 0 0 0-6.946-1.862z"/>
        <path fill="#63312D" d="M29.683 4.982l-2.582 1.49a.254.254 0 0 1-.254-.44.747.747 0 0 0 .272-1.018l-.25-.433a4.75 4.75 0 0 0-6.48-1.736.254.254 0 0 1-.255-.44L22.657.947a5.345 5.345 0 0 1 7.293 1.954l.198.343c.35.607.142 1.386-.465 1.737zm-1.964.546l1.71-.987a.764.764 0 0 0 .279-1.042l-.198-.343a4.836 4.836 0 0 0-6.599-1.768l-.57.33a5.26 5.26 0 0 1 4.969 2.609l.25.432c.14.242.188.512.16.77z"/>
        <path fill="#F8F3F3" d="M25.954 3.114a4.996 4.996 0 0 0-5.693-.49L5.976 10.872l-2.053-1.14a1 1 0 0 0-.985.008l-1.66.958c-.486.28-.653.903-.372 1.39l2.376 4.115 22.672-13.09v.001z"/>
        <path fill="#63312D" d="M26.082 3.334L3.41 16.424a.254.254 0 0 1-.348-.093L.686 12.214a1.273 1.273 0 0 1 .465-1.736l1.66-.958c.378-.219.852-.223 1.235-.01l1.928 1.07 14.16-8.176a5.272 5.272 0 0 1 5.983.514.254.254 0 0 1-.035.416zM3.376 15.856L25.498 3.084a4.762 4.762 0 0 0-5.11-.24L6.104 11.093a.254.254 0 0 1-.251.002l-2.054-1.14a.75.75 0 0 0-.734.006l-1.66.958a.764.764 0 0 0-.279 1.042l2.25 3.896z"/>
        <path fill="#84DBFF" d="M14.034 11.855l4.012-2.316a.508.508 0 0 1 .754.534l-1.393 7.41a.509.509 0 0 1-.246.346l-1.783 1.03a.508.508 0 0 1-.758-.371l-.835-6.124a.509.509 0 0 1 .25-.509z"/>
        <path fill="#CAF4FF" d="M15.5 17.98l-.835-6.124a.509.509 0 0 1 .25-.51l-.88.51a.509.509 0 0 0-.25.508l.835 6.124a.508.508 0 0 0 .758.371l.88-.508a.508.508 0 0 1-.758-.372z"/>
        <path fill="#63312D" d="M17.289 18.049l-1.784 1.03a.762.762 0 0 1-1.137-.558l-.835-6.123a.76.76 0 0 1 .374-.764l4.012-2.316a.755.755 0 0 1 .822.039.754.754 0 0 1 .309.763l-1.393 7.409a.76.76 0 0 1-.368.52zm-3.128-5.974a.253.253 0 0 0-.125.255l.835 6.123a.25.25 0 0 0 .14.194.25.25 0 0 0 .24-.008l1.783-1.03c.065-.037.11-.1.123-.173l1.393-7.41a.25.25 0 0 0-.103-.254.25.25 0 0 0-.274-.013l-4.012 2.316z"/>
        <path fill="#84DBFF" d="M23.838 2.074l-3.255 1.879.98 1.696 4.397-2.538a5 5 0 0 0-2.122-1.037z"/>
        <g fill="#63312D">
            <path d="M26.087 3.331L21.69 5.87a.254.254 0 0 1-.348-.093l-.98-1.697a.254.254 0 0 1 .094-.347l3.255-1.88a.255.255 0 0 1 .182-.028c.817.18 1.588.557 2.229 1.09a.253.253 0 0 1-.035.416zm-4.431 1.971l3.847-2.22a4.777 4.777 0 0 0-1.625-.738L20.93 4.046l.725 1.257zM10.065 21.278l3.578-2.066.255.44-3.578 2.066zM10.124 19.25l2.656-1.533.254.44-2.656 1.534zM1.882 7.104L5.46 5.038l.254.44-3.577 2.067z"/>
        </g>
    </g>
</svg>
