<svg xmlns="http://www.w3.org/2000/svg" width="23" height="16" viewBox="0 0 23 16">
    <g fill="none" fill-rule="nonzero">
        <path fill="#F5F5F5" d="M21.277.012H1.723C.77.012 0 .784 0 1.735v11.624c0 .951.771 1.722 1.723 1.722h19.554c.952 0 1.723-.77 1.723-1.722V1.735c0-.951-.771-1.723-1.723-1.723z"/>
        <g fill="#FF4B55">
            <path d="M.095 1.172h22.81a1.723 1.723 0 0 0-1.628-1.16H1.723C.969.012.328.497.095 1.172zM0 4.649h23v1.159H0zM0 2.331h23V3.49H0zM0 7.73c0 .219.178.396.397.396H23V6.967H0v.763zM0 11.604h23v1.159H0zM22.905 13.922H.095c.233.675.874 1.16 1.628 1.16h19.554c.754 0 1.395-.485 1.628-1.16zM0 9.286h23v1.159H0z"/>
        </g>
        <path fill="#41479B" d="M.397 8.126h9.913a.397.397 0 0 0 .397-.396V.409a.397.397 0 0 0-.397-.397H1.723C.77.012 0 .784 0 1.735V7.73c0 .219.178.396.397.396z"/>
        <g fill="#F5F5F5">
            <path d="M1.114.923l.087.263.278.002c.036 0 .05.046.022.067l-.223.165.083.265a.037.037 0 0 1-.057.041l-.226-.16-.226.16a.037.037 0 0 1-.057-.041l.084-.265-.224-.165a.037.037 0 0 1 .022-.067l.278-.002.088-.263a.037.037 0 0 1 .07 0zM1.114 2.3l.087.263.278.002c.036 0 .05.046.022.067l-.223.165.083.265a.037.037 0 0 1-.057.042l-.226-.162-.226.162a.037.037 0 0 1-.057-.042l.084-.265-.224-.165a.037.037 0 0 1 .022-.067l.278-.002.088-.263a.037.037 0 0 1 .07 0zM1.114 3.677l.087.263.278.002c.036 0 .05.046.022.068l-.223.164.083.265a.037.037 0 0 1-.057.042l-.226-.162-.226.162a.037.037 0 0 1-.057-.042l.084-.265-.224-.164a.037.037 0 0 1 .022-.068l.278-.002.088-.263a.037.037 0 0 1 .07 0zM1.114 5.054l.087.263.278.002c.036 0 .05.046.022.068l-.223.164.083.265a.037.037 0 0 1-.057.042l-.226-.162-.226.162a.037.037 0 0 1-.057-.042l.084-.265-.224-.164a.037.037 0 0 1 .022-.068l.278-.002.088-.263a.037.037 0 0 1 .07 0zM1.114 6.43l.087.264.278.002c.036 0 .05.046.022.068l-.223.164.083.265a.037.037 0 0 1-.057.042l-.226-.162-.226.162a.037.037 0 0 1-.057-.042l.084-.265-.224-.164a.037.037 0 0 1 .022-.068l.278-.002.088-.263a.037.037 0 0 1 .07 0zM2.182 1.598l.088.263.278.002c.036 0 .05.046.022.068l-.224.164.084.265a.037.037 0 0 1-.057.042l-.226-.162-.226.162a.037.037 0 0 1-.057-.042l.084-.265-.224-.164a.037.037 0 0 1 .022-.068l.278-.002.088-.263a.037.037 0 0 1 .07 0zM2.182 2.975l.088.263.278.002c.036 0 .05.046.022.068l-.224.164.084.265a.037.037 0 0 1-.057.042l-.226-.162-.226.162a.037.037 0 0 1-.057-.042l.084-.265-.224-.164a.037.037 0 0 1 .022-.068l.278-.002.088-.263a.037.037 0 0 1 .07 0zM2.182 4.352l.088.263.278.002c.036 0 .05.046.022.068l-.224.164.084.265a.037.037 0 0 1-.057.042l-.226-.162-.226.162a.037.037 0 0 1-.057-.042l.084-.265-.224-.164a.037.037 0 0 1 .022-.068l.278-.002.088-.263a.037.037 0 0 1 .07 0zM2.182 5.729l.088.263.278.002c.036 0 .05.046.022.068l-.224.165.084.264a.037.037 0 0 1-.057.042l-.226-.162-.226.162a.037.037 0 0 1-.057-.042l.084-.264-.224-.165a.037.037 0 0 1 .022-.068l.278-.002.088-.263a.037.037 0 0 1 .07 0zM3.251.923l.088.263.277.002c.036 0 .051.046.022.067l-.223.165.084.265a.037.037 0 0 1-.057.041l-.226-.16-.226.16a.037.037 0 0 1-.057-.041l.083-.265-.223-.165a.037.037 0 0 1 .022-.067l.278-.002.087-.263a.037.037 0 0 1 .071 0zM3.251 2.3l.088.263.277.002c.036 0 .051.046.022.067l-.223.165.084.265a.037.037 0 0 1-.057.042l-.226-.162-.226.162a.037.037 0 0 1-.057-.042l.083-.265-.223-.165a.037.037 0 0 1 .022-.067l.278-.002.087-.263a.037.037 0 0 1 .071 0zM3.251 3.677l.088.263.277.002c.036 0 .051.046.022.068l-.223.164.084.265a.037.037 0 0 1-.057.042l-.226-.162-.226.162a.037.037 0 0 1-.057-.042l.083-.265-.223-.164a.037.037 0 0 1 .022-.068l.278-.002.087-.263a.037.037 0 0 1 .071 0zM3.251 5.054l.088.263.277.002c.036 0 .051.046.022.068l-.223.164.084.265a.037.037 0 0 1-.057.042l-.226-.162-.226.162a.037.037 0 0 1-.057-.042l.083-.265-.223-.164a.037.037 0 0 1 .022-.068l.278-.002.087-.263a.037.037 0 0 1 .071 0zM3.251 6.43l.088.264.277.002c.036 0 .051.046.022.068l-.223.164.084.265a.037.037 0 0 1-.057.042l-.226-.162-.226.162a.037.037 0 0 1-.057-.042l.083-.265-.223-.164a.037.037 0 0 1 .022-.068l.278-.002.087-.263a.037.037 0 0 1 .071 0zM4.32 1.598l.088.263.277.002c.036 0 .051.046.022.068l-.223.164.084.265a.037.037 0 0 1-.058.042l-.225-.162-.226.162a.037.037 0 0 1-.057-.042l.083-.265-.223-.164a.037.037 0 0 1 .022-.068l.277-.002.088-.263a.037.037 0 0 1 .071 0zM4.32 2.975l.088.263.277.002c.036 0 .051.046.022.068l-.223.164.084.265a.037.037 0 0 1-.058.042l-.225-.162-.226.162a.037.037 0 0 1-.057-.042l.083-.265-.223-.164a.037.037 0 0 1 .022-.068l.277-.002.088-.263a.037.037 0 0 1 .071 0zM4.32 4.352l.088.263.277.002c.036 0 .051.046.022.068l-.223.164.084.265a.037.037 0 0 1-.058.042l-.225-.162-.226.162a.037.037 0 0 1-.057-.042l.083-.265-.223-.164a.037.037 0 0 1 .022-.068l.277-.002.088-.263a.037.037 0 0 1 .071 0zM4.32 5.729l.088.263.277.002c.036 0 .051.046.022.068l-.223.165.084.264a.037.037 0 0 1-.058.042l-.225-.162-.226.162a.037.037 0 0 1-.057-.042l.083-.264-.223-.165a.037.037 0 0 1 .022-.068l.277-.002.088-.263a.037.037 0 0 1 .071 0zM5.389.923l.088.263.277.002c.036 0 .051.046.022.067l-.223.165.084.265a.037.037 0 0 1-.058.041l-.226-.16-.225.16a.037.037 0 0 1-.058-.041l.084-.265-.223-.165a.037.037 0 0 1 .022-.067l.277-.002.088-.263a.037.037 0 0 1 .07 0zM5.389 2.3l.088.263.277.002c.036 0 .051.046.022.067l-.223.165.084.265a.037.037 0 0 1-.058.042l-.226-.162-.225.162a.037.037 0 0 1-.058-.042l.084-.265-.223-.165a.037.037 0 0 1 .022-.067l.277-.002.088-.263a.037.037 0 0 1 .07 0zM5.389 3.677l.088.263.277.002c.036 0 .051.046.022.068l-.223.164.084.265a.037.037 0 0 1-.058.042l-.226-.162-.225.162a.037.037 0 0 1-.058-.042l.084-.265-.223-.165a.037.037 0 0 1 .022-.067l.277-.002.088-.263a.037.037 0 0 1 .07 0zM5.389 5.054l.088.263.277.002c.036 0 .051.046.022.068l-.223.164.084.265a.037.037 0 0 1-.058.042l-.226-.162-.225.162a.037.037 0 0 1-.058-.042l.084-.265-.223-.164a.037.037 0 0 1 .022-.068l.277-.002.088-.263a.037.037 0 0 1 .07 0zM5.389 6.43l.088.264.277.002c.036 0 .051.046.022.068l-.223.164.084.265a.037.037 0 0 1-.058.042l-.226-.162-.225.162a.037.037 0 0 1-.058-.042l.084-.265-.223-.164a.037.037 0 0 1 .022-.068l.277-.002.088-.263a.037.037 0 0 1 .07 0zM6.458 1.598l.088.263.277.002c.036 0 .05.046.022.068l-.223.164.083.265a.037.037 0 0 1-.057.042l-.226-.162-.225.162a.037.037 0 0 1-.058-.042l.084-.265L6 1.931a.037.037 0 0 1 .022-.068l.277-.002.088-.263a.037.037 0 0 1 .07 0zM6.458 2.975l.088.263.277.002c.036 0 .05.046.022.068l-.223.164.083.265a.037.037 0 0 1-.057.042l-.226-.162-.225.162a.037.037 0 0 1-.058-.042l.084-.265L6 3.308a.037.037 0 0 1 .022-.068l.277-.002.088-.263a.037.037 0 0 1 .07 0zM6.458 4.352l.088.263.277.002c.036 0 .05.046.022.068l-.223.164.083.265a.037.037 0 0 1-.057.042l-.226-.162-.225.162a.037.037 0 0 1-.058-.042l.084-.265L6 4.685a.037.037 0 0 1 .022-.068l.277-.002.088-.263a.037.037 0 0 1 .07 0zM6.458 5.729l.088.263.277.002c.036 0 .05.046.022.068l-.223.165.083.264a.037.037 0 0 1-.057.042l-.226-.162-.225.162a.037.037 0 0 1-.058-.042l.084-.264L6 6.062a.037.037 0 0 1 .022-.068l.277-.002.088-.263a.037.037 0 0 1 .07 0zM7.527.923l.087.263.278.002c.036 0 .05.046.022.067l-.223.165.083.265a.037.037 0 0 1-.057.041l-.226-.16-.226.16a.037.037 0 0 1-.057-.041l.084-.265-.223-.165a.037.037 0 0 1 .021-.067l.278-.002.088-.263a.037.037 0 0 1 .07 0zM7.527 2.3l.087.263.278.002c.036 0 .05.046.022.067l-.223.165.083.265a.037.037 0 0 1-.057.042l-.226-.162-.226.162a.037.037 0 0 1-.057-.042l.084-.265-.223-.165a.037.037 0 0 1 .021-.067l.278-.002.088-.263a.037.037 0 0 1 .07 0zM7.527 3.677l.087.263.278.002c.036 0 .05.046.022.068l-.223.164.083.265a.037.037 0 0 1-.057.042l-.226-.162-.226.162a.037.037 0 0 1-.057-.042l.084-.265-.223-.164a.037.037 0 0 1 .021-.068l.278-.002.088-.263a.037.037 0 0 1 .07 0zM7.527 5.054l.087.263.278.002c.036 0 .05.046.022.068l-.223.164.083.265a.037.037 0 0 1-.057.042l-.226-.162-.226.162a.037.037 0 0 1-.057-.042l.084-.265-.223-.164a.037.037 0 0 1 .021-.068l.278-.002.088-.263a.037.037 0 0 1 .07 0zM7.527 6.43l.087.264.278.002c.036 0 .05.046.022.068l-.223.164.083.265a.037.037 0 0 1-.057.042l-.226-.162-.226.162a.037.037 0 0 1-.057-.042l.084-.265-.223-.164a.037.037 0 0 1 .021-.068l.278-.002.088-.263a.037.037 0 0 1 .07 0zM8.595 1.598l.088.263.278.002c.036 0 .05.046.022.068l-.224.164.084.265a.037.037 0 0 1-.057.042L8.56 2.24l-.226.162a.037.037 0 0 1-.057-.042l.084-.265-.224-.164a.037.037 0 0 1 .022-.068l.278-.002.088-.263a.037.037 0 0 1 .07 0zM8.595 2.975l.088.263.278.002c.036 0 .05.046.022.068l-.224.164.084.265a.037.037 0 0 1-.057.042l-.226-.162-.226.162a.037.037 0 0 1-.057-.042l.084-.265-.224-.164a.037.037 0 0 1 .022-.068l.278-.002.088-.263a.037.037 0 0 1 .07 0zM8.595 4.352l.088.263.278.002c.036 0 .05.046.022.068l-.224.164.084.265a.037.037 0 0 1-.057.042l-.226-.162-.226.162a.037.037 0 0 1-.057-.042l.084-.265-.224-.164a.037.037 0 0 1 .022-.068l.278-.002.088-.263a.037.037 0 0 1 .07 0zM8.595 5.729l.088.263.278.002c.036 0 .05.046.022.068l-.224.165.084.264a.037.037 0 0 1-.057.042L8.56 6.37l-.226.162a.037.037 0 0 1-.057-.042l.084-.264-.224-.165a.037.037 0 0 1 .022-.068l.278-.002.088-.263a.037.037 0 0 1 .07 0zM9.664.923l.088.263.278.002c.036 0 .05.046.021.067l-.223.165.084.265a.037.037 0 0 1-.057.041l-.226-.16-.226.16a.037.037 0 0 1-.057-.041l.083-.265-.223-.165a.037.037 0 0 1 .022-.067l.278-.002.087-.263a.037.037 0 0 1 .071 0zM9.664 2.3l.088.263.278.002c.036 0 .05.046.021.067l-.223.165.084.265a.037.037 0 0 1-.057.042l-.226-.162-.226.162a.037.037 0 0 1-.057-.042l.083-.265-.223-.165a.037.037 0 0 1 .022-.067l.278-.002.087-.263a.037.037 0 0 1 .071 0zM9.664 3.677l.088.263.278.002c.036 0 .05.046.021.068l-.223.164.084.265a.037.037 0 0 1-.057.042l-.226-.162-.226.162a.037.037 0 0 1-.057-.042l.083-.265-.223-.164a.037.037 0 0 1 .022-.068l.278-.002.087-.263a.037.037 0 0 1 .071 0zM9.664 5.054l.088.263.278.002c.036 0 .05.046.021.068l-.223.164.084.265a.037.037 0 0 1-.057.042l-.226-.162-.226.162a.037.037 0 0 1-.057-.042l.083-.265-.223-.164a.037.037 0 0 1 .022-.068l.278-.002.087-.263a.037.037 0 0 1 .071 0zM9.664 6.43l.088.264.278.002c.036 0 .05.046.021.068l-.223.164.084.265a.037.037 0 0 1-.057.042l-.226-.162-.226.162a.037.037 0 0 1-.057-.042l.083-.265-.223-.164a.037.037 0 0 1 .022-.068l.278-.002.087-.263a.037.037 0 0 1 .071 0z"/>
        </g>
    </g>
</svg>
