<svg xmlns="http://www.w3.org/2000/svg" width="18" height="14" viewBox="0 0 18 14">
    <g fill="none" fill-rule="evenodd">
        <path d="M-3-5h24v24H-3z"/>
        <path d="M0-2h18v18H0z"/>
        <path fill="#b13231" fill-rule="nonzero" d="M16.674.25L.744 2.95h7.613l7.272-1.23.221 1.23h1.306l-.482-2.7zM0 3.585V13.75h18V3.585H0zm3.174 1.27h11.652c-.022.104-.04.209-.04.319 0 .877.72 1.588 1.607 1.588.11 0 .217-.019.321-.04v3.891a1.61 1.61 0 0 0-.321-.04c-.888 0-1.607.712-1.607 1.589 0 .11.018.214.04.317H3.174c.022-.103.04-.208.04-.317 0-.877-.72-1.588-1.607-1.588a1.61 1.61 0 0 0-.321.04V6.721c.104.021.21.04.321.04.888 0 1.607-.711 1.607-1.588 0-.11-.018-.215-.04-.318zM9 5.492c-1.768 0-3.214 1.43-3.214 3.177 0 1.746 1.446 3.176 3.214 3.176s3.214-1.43 3.214-3.176C12.214 6.92 10.768 5.49 9 5.49zm0 1.27c1.073 0 1.929.847 1.929 1.907S10.073 10.574 9 10.574a1.908 1.908 0 0 1-1.929-1.906c0-1.06.856-1.906 1.929-1.906z"/>
    </g>
</svg>
