<svg xmlns="http://www.w3.org/2000/svg" width="20" height="20" viewBox="0 0 20 20">
    <g fill="none" fill-rule="nonzero">
        <g fill="#5E3118">
            <path d="M14.32 2.029l4.646 4.645-.183.183H20V2.029zM8.336 2.029H2.414a2.414 2.414 0 1 0 0 4.828h1.458l-.182-.183L8.336 2.03z"/>
        </g>
        <g fill="#77442B">
            <path d="M5.704 2.885c-.22.017-.447.028-.676.036a.345.345 0 0 0 .012.69l.013-.001c.237-.008.473-.02.703-.037a.345.345 0 0 0-.052-.688zM3.651 2.955c-.24.007-.475.015-.701.03a.345.345 0 1 0 .042.688c.219-.014.446-.022.678-.029a.346.346 0 0 0 .336-.354c-.005-.19-.17-.326-.355-.335zM1.503 3.213c-.313.103-.552.24-.73.419a.344.344 0 1 0 .487.487c.099-.099.253-.183.458-.25a.345.345 0 0 0-.215-.656zM17.241 3.063h-.69a.345.345 0 1 0 0 .69h.69a.345.345 0 1 0 0-.69zM19.31 3.063h-.69a.345.345 0 1 0 0 .69h.69a.345.345 0 1 0 0-.69z"/>
        </g>
        <path fill="#EAEAD6" d="M19.157 6.857L12.345.054a.048.048 0 0 0-.068 0L5.465 6.857h13.692z"/>
        <path fill="#BFBDA3" d="M5.474 6.857l5.854-5.854-.95-.95a.048.048 0 0 0-.067 0L3.499 6.858h1.975z"/>
        <path fill="#6D8C60" d="M16.321 7.072l.107-.106-4.097-4.092a.028.028 0 0 0-.04 0L8.196 6.966l.107.106h8.018z"/>
        <path fill="#77442B" d="M0 4.443v13.396c0 1.171.95 2.121 2.121 2.121H20V6.857H2.414A2.414 2.414 0 0 1 0 4.443z"/>
        <path fill="#91553D" d="M17.931 8.58h-.69a.345.345 0 1 1 0-.689h.69a.345.345 0 1 1 0 .69zm-2.069 0h-.69a.345.345 0 1 1 0-.689h.69a.345.345 0 1 1 0 .69zm-2.069 0h-.69a.345.345 0 1 1 0-.689h.69a.345.345 0 1 1 0 .69zm-2.069 0h-.69a.345.345 0 1 1 0-.689h.69a.345.345 0 1 1 0 .69zm-2.069 0h-.69a.345.345 0 1 1 0-.689h.69a.345.345 0 1 1 0 .69zm-2.069 0h-.69a.345.345 0 1 1 0-.689h.69a.345.345 0 1 1 0 .69zm-2.069 0h-.69a.345.345 0 1 1 0-.689h.69a.345.345 0 1 1 0 .69zm-2.069 0h-.69a.345.345 0 1 1 0-.689h.69a.345.345 0 1 1 0 .69zm-2.037-.217a.342.342 0 0 1-.143-.03 2.761 2.761 0 0 1-.66-.425.346.346 0 0 1 .451-.522c.15.13.316.237.495.319a.345.345 0 0 1-.143.658zM17.931 18.926h-.69a.345.345 0 1 1 0-.69h.69a.345.345 0 1 1 0 .69zm-2.069 0h-.69a.345.345 0 1 1 0-.69h.69a.345.345 0 1 1 0 .69zm-2.069 0h-.69a.345.345 0 1 1 0-.69h.69a.345.345 0 1 1 0 .69zm-2.069 0h-.69a.345.345 0 1 1 0-.69h.69a.345.345 0 1 1 0 .69zm-2.069 0h-.69a.345.345 0 1 1 0-.69h.69a.345.345 0 1 1 0 .69zm-2.069 0h-.69a.345.345 0 1 1 0-.69h.69a.345.345 0 1 1 0 .69zm-2.069 0h-.69a.345.345 0 1 1 0-.69h.69a.345.345 0 1 1 0 .69zm-2.069 0h-.69a.345.345 0 1 1 0-.69h.69a.345.345 0 1 1 0 .69zm-2.037-.218a.342.342 0 0 1-.143-.031 2.761 2.761 0 0 1-.66-.425.346.346 0 0 1 .451-.521c.15.13.316.237.495.319a.345.345 0 0 1-.143.658z"/>
        <path fill="#6D3D25" d="M20 15.535h-4.138a2.069 2.069 0 1 1 0-4.138H20v4.138z"/>
        <path fill="#5E3118" d="M20 15.132h-4.138a2.069 2.069 0 1 1 0-4.138H20v4.138z"/>
        <circle cx="16.207" cy="13.063" r="1.034" fill="#E4C05C"/>
    </g>
</svg>
